<?xml version="1.0" encoding="UTF-8"?>
<svg id="Camada_1" xmlns="http://www.w3.org/2000/svg" version="1.1" xmlns:xlink="http://www.w3.org/1999/xlink" viewBox="0 0 1920 1080">
  <!-- Generator: Adobe Illustrator 29.3.0, SVG Export Plug-In . SVG Version: 2.1.0 Build 146)  -->
  <defs>
    <style>
      .st0 {
        fill: #0038a8;
      }

      .st1 {
        fill: #009b2d;
      }

      .st2 {
        fill: url(#Gradiente_sem_nome_31);
      }

      .st3 {
        stroke-width: .18px;
      }

      .st3, .st4, .st5, .st6, .st7, .st8, .st9, .st10, .st11, .st12, .st13, .st14, .st15, .st16, .st17 {
        stroke: #000;
      }

      .st3, .st4, .st5, .st6, .st8, .st10, .st11, .st12, .st13, .st14, .st15, .st17 {
        fill: #009b3a;
      }

      .st18 {
        fill: url(#Gradiente_sem_nome_272);
      }

      .st4 {
        stroke-width: .16px;
      }

      .st5 {
        stroke-width: .14px;
      }

      .st6 {
        stroke-width: .14px;
      }

      .st19 {
        fill: url(#Gradiente_sem_nome_311);
        stroke: #bcbcbc;
        stroke-width: 3px;
      }

      .st19, .st9, .st16 {
        stroke-miterlimit: 10;
      }

      .st20 {
        fill: url(#Gradiente_sem_nome_38);
      }

      .st7 {
        fill: #fedf00;
      }

      .st7, .st14 {
        stroke-width: .11px;
      }

      .st8 {
        stroke-width: .12px;
      }

      .st21, .st16 {
        fill: #fff;
      }

      .st22 {
        fill: url(#Gradiente_sem_nome_273);
      }

      .st23 {
        fill: #ffb30e;
      }

      .st24 {
        fill: url(#Gradiente_sem_nome_27);
      }

      .st25 {
        fill: url(#Gradiente_sem_nome_274);
      }

      .st26 {
        fill: #002279;
      }

      .st27 {
        fill: #e2e2e2;
      }

      .st28 {
        fill: #983107;
      }

      .st29 {
        fill: url(#Gradiente_sem_nome_312);
      }

      .st9 {
        fill: none;
        stroke-width: .27px;
      }

      .st30 {
        fill: url(#Gradiente_sem_nome_271);
      }

      .st31 {
        fill: #ffdf00;
      }

      .st10 {
        stroke-width: .16px;
      }

      .st32 {
        fill: url(#Gradiente_sem_nome_276);
      }

      .st11 {
        stroke-width: .16px;
      }

      .st12 {
        stroke-width: .15px;
      }

      .st13 {
        stroke-width: .16px;
      }

      .st33 {
        fill: #ffa21a;
      }

      .st34 {
        fill: url(#Gradiente_sem_nome_275);
      }

      .st35 {
        fill: #c6c6c6;
      }

      .st15 {
        stroke-width: .15px;
      }

      .st16 {
        stroke-width: .69px;
      }

      .st36 {
        fill: #d52b1e;
      }

      .st17 {
        stroke-width: .18px;
      }

      .st37 {
        fill: #53aedf;
      }
    </style>
    <linearGradient id="Gradiente_sem_nome_27" data-name="Gradiente sem nome 27" x1="1052.65" y1="191.94" x2="1066.07" y2="191.94" gradientUnits="userSpaceOnUse">
      <stop offset=".13" stop-color="#b4b4b4"/>
      <stop offset=".13" stop-color="#b4b4b4"/>
      <stop offset=".19" stop-color="#cacaca"/>
      <stop offset=".26" stop-color="#dbdbdb"/>
      <stop offset=".35" stop-color="#e8e8e8"/>
      <stop offset=".47" stop-color="#efefef"/>
      <stop offset=".77" stop-color="#f1f1f1"/>
      <stop offset=".87" stop-color="#d5d5d5"/>
      <stop offset=".99" stop-color="#b9b9b9"/>
    </linearGradient>
    <linearGradient id="Gradiente_sem_nome_38" data-name="Gradiente sem nome 38" x1="973.61" y1="279.88" x2="1373.73" y2="279.88" gradientUnits="userSpaceOnUse">
      <stop offset=".13" stop-color="#b4b4b4"/>
      <stop offset=".23" stop-color="#b7b7b7"/>
      <stop offset=".32" stop-color="#c2c2c2"/>
      <stop offset=".4" stop-color="#d4d4d4"/>
      <stop offset=".49" stop-color="#ededed"/>
      <stop offset=".49" stop-color="#f0f0f0"/>
      <stop offset=".73" stop-color="#e2e2e2"/>
      <stop offset=".99" stop-color="#dadada"/>
    </linearGradient>
    <linearGradient id="Gradiente_sem_nome_271" data-name="Gradiente sem nome 27" x1="945.29" y1="188.21" x2="1028.29" y2="188.21" xlink:href="#Gradiente_sem_nome_27"/>
    <linearGradient id="Gradiente_sem_nome_272" data-name="Gradiente sem nome 27" x1="1013.23" y1="182.77" x2="1040.77" y2="182.77" xlink:href="#Gradiente_sem_nome_27"/>
    <linearGradient id="Gradiente_sem_nome_273" data-name="Gradiente sem nome 27" x1="1023.18" y1="216.94" x2="1039.78" y2="216.94" xlink:href="#Gradiente_sem_nome_27"/>
    <linearGradient id="Gradiente_sem_nome_274" data-name="Gradiente sem nome 27" y1="192.07" x2="1064.25" y2="192.07" xlink:href="#Gradiente_sem_nome_27"/>
    <linearGradient id="Gradiente_sem_nome_31" data-name="Gradiente sem nome 31" x1="778.48" y1="268.35" x2="1125.97" y2="268.35" gradientUnits="userSpaceOnUse">
      <stop offset=".2" stop-color="#b4b4b4"/>
      <stop offset=".24" stop-color="#bbb"/>
      <stop offset=".48" stop-color="#e2e2e2"/>
      <stop offset=".6" stop-color="#f1f1f1"/>
      <stop offset=".86" stop-color="#b9b9b9"/>
    </linearGradient>
    <linearGradient id="Gradiente_sem_nome_275" data-name="Gradiente sem nome 27" x1="1029.2" y1="152" x2="1035.51" y2="152" xlink:href="#Gradiente_sem_nome_27"/>
    <linearGradient id="Gradiente_sem_nome_276" data-name="Gradiente sem nome 27" x1="964.27" y1="97.17" x2="547.86" y2="513.58" xlink:href="#Gradiente_sem_nome_27"/>
    <linearGradient id="Gradiente_sem_nome_311" data-name="Gradiente sem nome 31" x1="886.38" y1="580.93" x2="1025.03" y2="580.93" xlink:href="#Gradiente_sem_nome_31"/>
    <linearGradient id="Gradiente_sem_nome_312" data-name="Gradiente sem nome 31" x1="871.73" y1="686" x2="1036.3" y2="686" xlink:href="#Gradiente_sem_nome_31"/>
  </defs>
  <g id="ESCRITA">
    <g>
      <path class="st35" d="M589.58,901.78l4.93,4.81-4.07,5.97c-29.74-7.81-7.16-42.17,15.65-26.44l12.05,11.09,6.13-10.21c-11.91-12.35-28.89-24.63-46.8-17.24-8.43,3.48-16.84,15.13-17.61,24.15-.08.99-.12,2.35,0,3.31,1.83,15.24,24.2,28.06,37.5,32.32l17.04-23.54-19.28-12.15-5.53,7.94Z"/>
      <path class="st35" d="M975.42,988.24c-9.12,1.03-7.31-7.97-7.05-14.52.15-3.8.94-9.02,1.65-12.83h-16.54l-.64,31.65c1.58,4.99,4.95,7.34,9.73,8.87h9.1c3.44-1.7,6.3-2.44,8.69-5.79-.51,8.78,9.41,2.44,15.3,4.14l1.24-39.7h-14.47c-.93,6.52,1.61,27.21-7,28.17Z"/>
      <path class="st35" d="M1379.76,892.23l-13.62,9.11,4.04-22.79-6.22-10.36c-3.04-.49-23.18,16.67-27.65,18.74l6.26,9.43,11.99-9.08-3.77,23.6,6.66,10.29,27.71-19.84v-.83l-5.39-8.29Z"/>
      <path class="st35" d="M1142.44,952.61c-6.6-7.16-18.59-5.11-23.99,2.49l-.41-3.31-14.79,1.75,4.01,39.26,14.82-2.22c2.26-2.68-8.26-31.68,5.33-28.73,2.39.82,3.58,13.87,3.85,16.83.21,2.26-.56,8.22.37,9.55,1.7,2.42,12.22-1.73,15.36-.87,1.02-.99-4.36-23.48-.39-28.09,1.46-1.69,3.96-2.29,5.82-.92,4.04,2.96,2.85,22.1,4.5,27.36l13.53-1.77,1.24-1.24c-1.29-11.07-.94-23.14-4.15-33.67-5.02-8.27-21.36-4.66-25.1,3.58Z"/>
      <path class="st35" d="M813.66,949.25c-11.16-1.78-21.88-3.78-29.57,6.41-14.41,19.11,1.77,42.37,23,29.22v4.96s14.06,1.66,14.06,1.66l9.93-52.1-15.71-2.49-1.72,12.34ZM801.53,978.09c-11.73,1.07-9.79-19.82,4.33-19.75,1.81,0,3.54.74,5.31.96-.08,5.89-2.39,18.13-9.64,18.79Z"/>
      <polygon class="st35" points="1263.59 926.16 1262 917.12 1284.26 910.44 1280.56 898.98 1242.42 912.07 1256.15 963.37 1272.68 958.41 1267 938.13 1285.1 931.55 1285.95 929.88 1283.43 920.37 1263.59 926.16"/>
      <path class="st35" d="M653.32,912.12c-1.9,5.41-7.74,21.03-13.22,22.78-4.44,1.41-8.81-1.7-8.14-6.46.53-3.82,10.99-20.7,9.76-22.13l-14.88-4.97c-1.58,12.65-22.19,31.55-5.82,40.96,5.45,3.13,12.52,4.16,18.21,1.22l-1.65,4.95,14.02,4.96,16.59-36.37-14.86-4.95Z"/>
      <path class="st35" d="M1200.57,935.49c-34.85,2.46-29.33,51.33,5.97,41.55,26.79-7.42,21.2-43.46-5.97-41.55ZM1208.23,958.85c-.46,6.92-8.53,10.88-13.02,5.92-.74-.82-2.5-4.82-2.69-6-2.27-14.26,16.81-16.3,15.71.08Z"/>
      <path class="st35" d="M1319.66,896.62c-36.35,2.68-30.16,55.11,5.34,41.74,26.13-9.84,18.11-43.47-5.34-41.74ZM1323.06,927.33c-11.84,7.07-19.57-17.24-5.93-18.39,7.46-.63,13.37,13.94,5.93,18.39Z"/>
      <path class="st35" d="M900.97,957.58h15.3l-3.31,41.36,16.5.78,3.35-41.3h13.64c.43,0,1.79,1.3,2.89.83l.83-12.41-49.63-1.65c1.04,2.6-2.32,11.56.42,12.41Z"/>
      <path class="st35" d="M703.29,929.41l-1.29.57-3.22,8.58c3.59-1.2,19.49-1.51,20.56,3.06l-.72,3.56h-19.43c-3.15,0-8.91,4.84-10.16,8.03-4.36,11.15,8.32,17.96,17.88,16.64l3.44-7.3c-2.77.55-8.71-1.22-7.05-4.95,1.86-4.18,9.13-1.56,12.83-3.33l-4.95,17.36,14.51,3.11,1.02-1.2c.76-8.87,12.49-28.58,6.81-36.03-4.49-5.89-23.05-8.13-30.24-8.12Z"/>
      <path class="st35" d="M831.99,972.13c-2.37,16.98,8.58,23.15,23.6,24.22,11.69.84,12.99.38,15.19-11.47-8.89,1.67-24.55,4.1-23.98-9.1l28.1,2.47c7.7-28.96-39.08-33.64-42.92-6.12ZM860.86,970.82c-3.5.27-6.91-.22-10.34-.86-1.23-.23-2.33.82-2.08-1.21.95-7.73,14.75-7.51,12.42,2.07Z"/>
      <path class="st35" d="M1080.78,967.09c0-4.07,12.08-2.96,14.93-2.06l-1.74-10.66c-9.28-.24-26.86-2.07-28.81,10.3-1.79,11.38,16.34,14.7,15.62,18.87-4.14,5.81-10.81,1.41-16.49,1.34l2.15,10.83c9.62,2.62,32.33.51,30.06-13.69-1.33-8.31-15.72-11.38-15.72-14.94Z"/>
      <path class="st35" d="M1021.69,962.54c-2.14.92-.85-2.92-1.23-3.31l-14.89.83v39.71l15.72-.83c-.56-11.41-4.36-30.66,13.23-28.12l-.94-12.29c-4.28-1.95-9.09.53-11.89,4.01Z"/>
      <path class="st35" d="M676.14,920.3l-13.76,37.28,15.67,4.11,13.22-36.79c-.1-1.02-12.97-4.46-15.13-4.6Z"/>
      <polygon class="st35" points="1040.3 958.41 1040.35 996.12 1041.68 997.98 1056.85 997.28 1056.02 957.58 1040.3 958.41"/>
      <polygon class="st35" points="695.45 910.46 680.59 906.31 678.1 915.4 692.98 919.54 695.45 910.46"/>
      <path class="st35" d="M1043.2,952.62h11.99c-.34-2.03,1.03-9.28-1.3-9.83l-14.41.73.83,9.92c1.16.49,2.47-.82,2.89-.82Z"/>
    </g>
  </g>
  <path id="CABO_GUARDA_CHUVA" class="st33" d="M979.37,477.22c-.53-.44-1.46-.64-2.22-1.69-.18-.24-.29-.47-.37-.62v-101.85h-9.87v101.85c0,1.55,0,3.1-.02,4.64,2.97.81,5.95,1.62,8.92,2.43,1.38-.29,2.75-.57,4.13-.86.42-2.42-.03-3.44-.58-3.9Z"/>
  <g id="GUARDA_CHUVA">
    <g>
      <path class="st24" d="M1059.95,199.39c.66.16,1.35.22,2.02.17,2.18-.18,2.46-.49,2.25-2.49-.18-1.72.13-2.29,1.25-2.31,1.12-.01.73-.73-1.63-2.92-3.66-3.41-3.91-4.53-.97-4.53s2.13-1.83-1.28-2.72c-3.03-.78-8.45.16-8.92,1.55-.16.48.65,2.27,1.81,3.97,1.27,1.88,1.72,2.93,1.54,3.88,1.28,1.73,2.59,3.52,3.93,5.39Z"/>
      <path class="st20" d="M1369.69,407.45c-1.46-8.58-6.27-34.57-19.52-66.31-3.54-8.48-13.42-31.11-31.3-57.56-4.59-6.78-19.05-27.64-42.41-51.16-7.15-7.2-29.01-28.62-62.27-50.49-16.97-11.16-39.46-24.12-67.32-35.68-25.4-11.08-48.45-18.19-67.32-22.89-26.89-6.69-49.09-9.42-62.38-10.66-16.98-1.59-31.77-1.92-43.56-1.78,3.62,1.79,7.85,4.22,12.27,7.53,3.78,2.84,6.89,5.71,9.39,8.31,4.51.03,9.12.27,11.89.7l4.15.65-4.93.11c-4.63.1-4.84.19-3.32,1.42,1.59,1.29,1.59,1.3-.05.66-.88-.35-2.48-.53-4.46-.53,4.06,3.76,8.19,7.73,12.38,11.91,5.79.37,10.18,1.61,21.2,5.3,10.75,3.6,12.85,5.06,6.17,4.3-2.51-.28-5.6-.75-6.85-1.03-2.59-.59-2.99.51-.94,2.57,1.15,1.15,2.73,1.27,10.59.85,5.08-.27,9.36-.85,9.52-1.29s1.03-.79,1.96-.79c1.08,0,1.52.41,1.25,1.13-.34.89,1.43,1.23,8.42,1.62,5.89.33,11.21,1.2,15.87,2.6,4.5,1.36,7.2,1.81,7.53,1.27.5-.81,2.93.03,12.03,4.16,3.38,1.53,5.45,1.4,3.81-.24-1.57-1.57-1.01-2.11,2.74-2.68,5.34-.8,7.15.45,7.15,4.95,0,2.66-.38,3.78-1.45,4.23-1.19.5-1.01.74,1.04,1.33,3.78,1.1,4.74.4,4.1-2.99-.47-2.52-.33-2.92,1.07-2.92.89,0,1.88.26,2.19.58.82.82,11.54,3.54,12.24,3.1,1.01-.62,16.19,3.66,25.46,7.17,4.9,1.86,10.97,4.06,13.48,4.9,6.84,2.27,13.78,5.49,17.91,8.31,2.02,1.38,5.38,3.67,7.45,5.08,2.6,1.78,3.64,3,3.34,3.94-.23.76-.16,1.76.18,2.23,1.06,1.51,9.05,6.87,17.4,11.68,11.3,6.52,12.59,7.55,14.05,11.18.75,1.86,2.03,3.44,3.07,3.76.98.3,4.78,2.53,8.43,4.94,8.7,5.75,11.12,6.85,11.98,5.46.47-.76,1.21-.3,2.64,1.65,2.42,3.29,19.13,20.05,25.66,25.73,2.61,2.27,5.41,5.33,6.22,6.8.82,1.47,4.65,5.47,8.53,8.88,3.87,3.41,7.41,7.03,7.87,8.03.46,1.01,1.66,2.04,2.66,2.29,1.01.25,3.71,2.62,6.01,5.25,2.3,2.64,5.53,6.29,7.18,8.12,1.65,1.83,3.01,3.72,3.02,4.2.04,1.79-2.23,3.96-3.6,3.43-.89-.34-1.37-.1-1.37.7,0,1.93-.95,1.45-5.5-2.74h0c-2.34-2.16-6.45-5.52-9.14-7.47-2.68-1.95-6.23-4.82-7.89-6.39-3.34-3.16-8.87-7.09-9.98-7.09-.39,0-.71.75-.71,1.66s-.47,1.65-1.04,1.63c-2.72-.08-11.56-2.37-12.66-3.29-2.08-1.73-1.39-7.48.9-7.48.63,0,4.38,1.49,8.33,3.32,7.76,3.58,10.4,4.22,8.62,2.08-.57-.69-1.52-1.25-2.12-1.25s-2.45-1.66-4.12-3.69c-3.04-3.71-8.64-7.1-11.72-7.1-.91,0-2.94-1.34-4.51-2.98-4.13-4.3-16.07-13.4-19.43-14.8-3.66-1.53-13.05-3.95-13.51-3.48-.5.5,10.42,11.3,11.41,11.3s1.08,3.35.18,4.57c-.34.46-1.51,1.33-2.6,1.95-1.78,1-1.93.97-1.45-.28,2.07-5.39,1.23-7.07-2.56-5.11-2.17,1.12-4.79,1.15-12.49.16-1.49-.19-3.79-1.12-5.11-2.06-1.74-1.24-3.69-1.71-7.05-1.71-2.56,0-4.65.17-4.65.38s.44,1.34.97,2.51c1.31,2.87.08,4.11-2.92,2.97-1.95-.74-2.21-1.29-2.21-4.64,0-2.92-.47-4.26-2.04-5.83-1.12-1.12-2.43-2.04-2.91-2.04s-.87-.68-.87-1.52c0-1.13-1-1.75-3.93-2.42-2.16-.49-4.25-.7-4.64-.46-.39.24.52,1.7,2.02,3.25,2.54,2.62,2.6,2.81.9,2.81-2.17,0-2.13-.26-.57,4.19.69,1.96,1.05,4.23.79,5.04-1.12,3.53-11.08,4.08-20.06,1.12-4-1.32-4.41-1.32-5.67-.06-.75.75-1.75,1.13-2.22.84-.54-.33-.44-.78.27-1.23,1.95-1.22-.34-3.63-3.73-3.91-2.7-.23-3.03-.05-3.03,1.7,0,1.08.4,2.36.9,2.86,1.47,1.47,2.45,7.13,1.45,8.34-.49.59-2.29,1.07-4.01,1.07-2.95,0-3.32-.3-6.57-5.48-3.31-5.29-3.51-5.44-5.28-4.27-2.71,1.79-2.86,5.89-.34,8.88,2.56,3.05,3.5,7.77,2.18,10.97-.89,2.14-.79,2.65.86,4.4,1.7,1.81,1.76,2.14.62,3.76-1.2,1.72-1.35,1.59-4.88-4.3-3.8-6.34-8.18-15.03-8.17-16.19,0-.37,1.65,1.1,3.65,3.27s4.02,3.94,4.48,3.94c.49,0,.28-1.62-.51-3.94-.94-2.75-1.28-6.16-1.12-11.24l.23-7.29-2.54-.88c-1.87-.65-2.54-1.4-2.54-2.86,0-1.08-.81-3.63-1.79-5.66-2.43-5-6.24-6.17-15.34-4.7-9.3,1.5-10.61,2.13-12.27,5.88-1.21,2.74-1.85,3.29-3.85,3.29-2.23,0-2.52-.38-4.1-5.51-.94-3.03-1.91-7.05-2.16-8.93-.85-6.35-1.17-7.15-2.8-7.15-.87,0-2.45-1.13-3.51-2.51-5.05-6.58-5.19-6.68-11.23-8.23-2.76-.71-5.97-1.83-7.82-2.71,13.15,20.42,27.5,46.23,39.85,76.96,17.15,42.7,21.38,72.34,22.33,79.45,2.65,19.85,2.81,36.78,2.36,49.13,16.78-9.56,55.55-28.6,107.53-26.89,69.22,2.27,115.25,39.79,128.58,51.5-.28-10.79-1.25-24.97-4.04-41.4ZM1079.47,138.97c.82-.49,4.51.65,4.51,1.39,0,.6-1.74.46-3.68-.3h0c-.88-.35-1.26-.84-.83-1.09ZM1095.19,150.91c-8.13-.91-17.67-.66-18.81.49-1.28,1.28-2.11,1.26-5.27-.15h0c-2.31-1.03-2.37-1.16-.83-1.83,2.77-1.21,21.96-.63,26.16.79l3.74,1.26-4.98-.56ZM1163.97,172.37h0c-3.89-2.23-6.14-4.16-4.86-4.16,1.39,0,6.13,2.54,8.33,4.46,3.29,2.88,1.85,2.75-3.47-.3ZM1178.24,180.64c-.46,0-1.39-.36-2.08-.81-.69-.44-.87-.81-.42-.81s1.39.36,2.08.81c.69.44.87.81.42.81ZM1253.24,233.55h0c-2.6-1.91-4.75-3.77-4.78-4.15-.05-.77,3.16,1.45,7.43,5.15,4.06,3.51,2.94,3.09-2.65-1.01ZM1108.89,258.73c-.46,0-.83-.77-.83-1.71s.37-1.48.83-1.2c.46.28.83,1.05.83,1.71s-.37,1.2-.83,1.2ZM1190.34,298.7c.71,1.33.53,1.56-1.27,1.56-1.16,0-2.11-.34-2.11-.76s-.22-1.33-.48-2.02c-.71-1.86,2.8-.75,3.86,1.22ZM1189.38,294.21c.19.13-.46.24-1.45.24-1.11,0-1.8-.52-1.8-1.35h0c0-1.15.21-1.19,1.45-.24.8.61,1.61,1.22,1.8,1.35ZM1184.86,281.7c1.61-2.12,3.22-.92,2.48,1.83-.32,1.21-.6,2.66-.62,3.23-.02.57-.07,1.03-.1,1.01-.04-.01-.72-.41-1.52-.87h0c-1.74-1.01-1.83-3.1-.24-5.21ZM1178.25,309.2c.01,3.24-.22,3.34-1.27.55-.62-1.63-1.2-2.01-2.47-1.61-1.27.4-1.66.15-1.66-1.09,0-.89.54-2.06,1.19-2.6,1.73-1.44,4.21,1.35,4.22,4.75ZM1158.72,290.98c.69.15,4.38.34,8.21.42,5.85.12,7.12.39,7.89,1.7.7,1.18.67,1.65-.12,1.94-.57.21-1.04,1.11-1.04,2.01,0,.94-1.05,2.23-2.49,3.05-1.37.78-2.49,1.7-2.49,2.04-.01,1.67-3.36.26-6.92-2.91h0c-2.89-2.57-4.01-4.2-4.13-6.02-.12-1.84.16-2.42,1.08-2.21ZM1151.23,299.76l-2.06-2.25,2.8,1.58c2.85,1.61,10.05,7.72,9.18,7.78-.26.02-2.14-1.07-4.17-2.41h0c-2.03-1.34-4.62-3.46-5.75-4.7ZM1194.42,386.19h0c-.58-.7-.79-1.52-.48-1.84.69-.69,3.17.76,3.63,2.13.47,1.42-1.92,1.2-3.15-.29ZM1209.52,381.22c-6.11,2.19-7.82,2.28-10.59.55h0c-5.04-3.15-9.28-7.92-10.25-11.55-.52-1.94-2.06-4.67-3.41-6.05-1.35-1.38-2.46-2.87-2.46-3.31,0-1.11-5.82-7.45-6.85-7.45s-14.46-5.18-19.62-7.54c-3.38-1.55-3.59-1.84-3.11-4.22.28-1.41.51-5.28.51-8.6,0-4.47.31-6.15,1.19-6.49.65-.25,3.89.31,7.2,1.24,5.22,1.48,6.43,1.56,9.19.65,3.57-1.18,8.79-.14,10.66,2.12.64.77,2.5,1.25,4.87,1.27,2.11.01,4.44.48,5.16,1.04,1.91,1.46,3.45,4.69,2.92,6.08-.25.66.68,3.06,2.08,5.33,3.06,4.97,5.3,5.4,8.13,1.58,1.04-1.41,2.05-2.4,2.24-2.21.19.19.74,3.48,1.22,7.31.48,3.83,1.76,9.22,2.84,11.97,5.05,12.86,4.73,15.89-1.93,18.28ZM1217.75,348.51h0c-.94-1.33-1.72-2.76-1.72-3.19,0-1.59-3.16-4.36-4.97-4.36-2.67,0-7.54-5.54-7.32-8.33.11-1.5-.9-3.48-3.22-6.27-3.79-4.56-5.62-7.72-4.91-8.44.85-.86,3.71,2.4,3.97,4.53.19,1.54,1.03,2.34,3.24,3.09,4.94,1.69,14.87,13.64,14.87,17.9,0,1.42.57,3.69,1.27,5.03,1.62,3.13,1.01,3.15-1.21.04ZM1239.28,277c-3.1-1.58-3.72-1.52-3.38.32.22,1.18-3.42,4.66-4.87,4.66-.72,0-4.68-1.68-8.78-3.73h0c-4.11-2.05-8.29-3.73-9.29-3.74-1.83-.01-3.32-1.38-2.45-2.25.72-.72,7.94,1.28,12.73,3.54,6.07,2.85,9.24,2.65,10.47-.67.8-2.17,5.34-1.91,7.28.42,2.41,2.89,1.92,3.3-1.71,1.45Z"/>
    </g>
    <g>
      <path class="st30" d="M985.45,195.93c7.64,2.54,9.41,2.67,11.48.79,1.43-1.29,2.03-1.26,9.2.43,15.73,3.72,18.22,3.99,20.07,2.14,1.44-1.44,2.61-5.15,1.86-5.89-.26-.26-3.46-.78-7.1-1.14-7.97-.8-9.7-1.63-11.27-5.39-.88-2.11-1.71-2.87-3.11-2.86-2.97.02-4.5,1.27-3.32,2.7.54.65.73,1.42.43,1.72-1.45,1.45-3.73.16-6.58-3.72-2.4-3.27-4.37-4.85-8.39-6.73-8.82-4.13-10.36-1.18-1.69,3.22,3.42,1.73,3.9,2.25,3.03,3.3-.57.68-1.25.92-1.52.53-.27-.39-3.37-2.28-6.9-4.2-6.31-3.43-6.51-3.48-12.46-2.97-3.32.29-6.42.96-6.88,1.5-.46.54-2.06,1.48-3.57,2.09-1.51.61-3.27,2.14-3.92,3.4-.9,1.74-2.18,2.53-5.36,3.29-2.3.55-4.18,1.34-4.18,1.75,0,1.08,5.14.9,13.47-.47,8.44-1.38,16.57-1.8,17.99-.92.55.34.79,1.28.53,2.09-.64,2.01.59,2.82,8.18,5.35ZM985.98,186.48c.97,0,1.53.37,1.25.83-.28.46-.84.83-1.25.83s-.96-.37-1.25-.83c-.28-.46.28-.83,1.25-.83ZM974.36,183.58c-.46.28-.83-.07-.83-.78s.37-1.29.83-1.29.83.35.83.78-.37,1.01-.83,1.29Z"/>
      <path class="st18" d="M1040.77,187.1c-.01-.57-1.69-2.05-3.73-3.28-2.58-1.56-3.55-2.63-3.21-3.53.38-.99-.1-1.28-2.04-1.28-1.39,0-2.76.37-3.04.83-.81,1.31-2.87.98-5.17-.83-2.77-2.18-4.07-2.1-7.41.46-5.07,3.87-4.14,4.65,7.24,6.14,3.46.45,7.19,1.18,8.3,1.63,3.02,1.21,9.08,1.12,9.05-.13Z"/>
      <path class="st22" d="M1030.43,219.73c4.01,7.95,10.4,12.41,9.2,6.4h0c-.55-2.78-9.97-17.44-12.91-20.1-.91-.82-2.22-1.27-2.92-1-1.06.41-.85,1.21,1.27,4.8,1.4,2.37,3.81,6.82,5.35,9.9Z"/>
      <path class="st25" d="M1061.97,199.56c1.59-.13,2.16-.34,2.28-1.2-2.81-4.92-5.5-9.51-8.1-13.8-1.79.31-3.25.89-3.48,1.59-.16.48.65,2.27,1.81,3.97,1.62,2.39,1.91,3.45,1.27,4.65-1.13,2.12,2.71,5.08,6.22,4.79Z"/>
      <path class="st2" d="M1083.77,234.41c-2.62-5.06-5.15-9.87-7.61-14.46-1.7-.61-3.17-1.23-3.97-1.71-1.51-.91-4.59-2.33-6.84-3.17-2.39-.89-5.29-2.84-6.95-4.68-2.97-3.28-3.9-3.65-5.97-2.33-1.02.64-.41,1.63,3.29,5.39,3.95,4,4.96,4.6,7.75,4.6,2.48,0,3.86.61,6.05,2.67,1.56,1.47,2.84,2.92,2.84,3.22s-1.78,1.3-3.94,2.23c-4.51,1.92-13.76,3.51-20.45,3.51-10.96,0-11.34,3.61-.49,4.57,3.64.32,6.61.88,6.61,1.23,0,2.1-7.46,7.87-14.52,11.24-4.43,2.11-8.45,4.63-9.18,5.73-.98,1.49-1.23,3.75-1.04,9.3l.25,7.33-3.32,1.5c-5.6,2.53-5.8,2.74-6.06,6.24-.2,2.73-.62,3.46-2.2,3.85-1.07.27-2.7,1.76-3.62,3.32-2.47,4.18-8.27,7.25-14.65,7.76-6.67.54-9.32-.12-10.06-2.49-.32-1.03-2.82-6.44-5.56-12.03-5.22-10.66-5.85-13.42-3.63-15.88,2.67-2.95,1.44-9.54-2.69-14.36-2.6-3.04-3.02-4.1-3.02-7.7q0-4.17-3.07-4.68c-1.69-.28-3.64-.97-4.33-1.55-1.75-1.45-7.08-1.34-15.78.33-10.14,1.94-12.84,1.39-20.41-4.22-3.42-2.53-6.46-4.99-6.76-5.47s-.18-2.17.25-3.74c.53-1.91.5-3.72-.09-5.41-.74-2.13-.6-3,.89-5.41,2.41-3.9,5-6.38,7.94-7.59,1.58-.66,2.97-2.19,3.9-4.3.8-1.8,1.96-3.28,2.59-3.28,1.1,0,3.72-3.04,3.72-4.31,0-.34-1.21-.93-2.7-1.32-2.5-.64-2.72-.98-2.95-4.53l-.25-3.84,3.57-.47c1.96-.26,5.25-.57,7.31-.68,3.1-.17,3.78-.51,3.99-1.98.16-1.13-.55-2.4-1.97-3.52-1.55-1.22-1.88-1.86-1.08-2.11.62-.2,4.85-1.54,9.38-2.98,11.16-3.54,14.17-5.04,14.18-7.05,0-2.42,2.61-2.5,4.76-.14,1.74,1.91,2.58,2.09,11.27,2.45,9.25.39,9.41.36,10.73-1.65,1.14-1.75,1.76-1.97,4.22-1.5,2.4.45,2.8.32,2.38-.76-.42-1.09.25-1.3,4.04-1.3,5.81,0,5.98-1.63.18-1.76-6.83-.15-9.34-.91-9.34-2.82,0-1.22.82-1.85,3.13-2.43,4.22-1.04,3.44-2.61-1.14-2.3-4.95.34-8.56,1.56-10.31,3.5-1.33,1.47-1.34,1.66-.1,2.13,1.67.64,1.79,2,.17,2-.65,0-1.88.89-2.74,1.98-1.11,1.41-2.77,2.14-5.81,2.56-4.12.57-4.24.52-3.78-1.27.79-3.04-1.72-4.2-7.74-3.58-4.81.49-5.18.41-5.73-1.32-.82-2.57.15-3.26,8.23-5.86,3.9-1.25,8.4-3.05,10-4,4.58-2.7,8.77-3.49,18.88-3.53,9.37-.04,12.57.45,24.61,4.4-6.57-7.58-12.69-13.2-18.81-17.81l-3.83.09c-4.63.1-4.84.19-3.32,1.42,1.59,1.29,1.59,1.3-.05.66-1.76-.7-6.41-.71-11.21-.04-1.69.24-4.58-.2-6.92-1.06h0s-4.01-1.46-4.01-1.46l3.92-.54c5.12-.7,17.11-.56,22.37.26l2.72.42c-3.36-2.35-7.09-4.71-11.19-6.99-10.43-5.78-20.37-9.35-28.78-11.61-.73.37-2.05,1.04-3.7,1.85-14.73,7.18-20.53,7.82-28.05,13.91-2.39,1.93-3.92,3.59-5.39,5.16-6.27,6.75-9.88,13.54-11.93,18.2,1.29.02,1.91.19,1.69.54-.34.55-2.07,1.31-4.16,1.97-23.88,24.28-51.62,55.34-74.28,97.8,1.96.7,4.28,1.05,6.34.95,9.22-.47,9.26-.46,12.07,2.27l2.72,2.64,10.34.06c16.9.1,20.24,2.18,15.09,9.38-1.5,2.1-2.99,5.81-3.85,9.58-1.83,8.08-2.16,8.6-7.44,11.58-3.9,2.2-4.69,3.08-5.84,6.54-1.37,4.14-6.45,12.34-8.74,14.11-.72.56-1.92,1.02-2.67,1.04-1.01.02-1.34.73-1.25,2.7.1,2.29-.32,2.92-3,4.36-1.72.93-3.31,2.28-3.54,3.01-.23.73-1.35,1.81-2.48,2.42-1.53.82-1.83,1.37-1.17,2.16,1.12,1.35-.25,4.08-2.71,5.4l-1.78.95,1.95,1.47c1.88,1.42,1.9,1.55.55,3.61-2.02,3.08-1.76,5.39.73,6.52l2.13.97-1.94,1.02c-4.07,2.13-7.55,2.18-10.39.16h0c-3.2-2.28-3.99-5.12-2.72-9.84.52-1.93.64-3.74.26-4.01-.38-.28-.77-6.11-.87-12.96-.2-13.58-.75-20.17-1.81-21.88-.38-.61-2.92-1.37-5.66-1.69-1.28-.15-2.38-.35-3.37-.63-11.2,29.14-16.09,52.08-17.96,61.63-5.78,29.56-7.02,55.38-6.73,75.17,21.07-14.89,81.88-53.73,168.97-54.3,86.09-.56,146.87,36.62,168.29,51.16.51-19.27-.42-46.76-7.4-78.76-8.11-37.16-20.91-61.79-46.45-111.07ZM945.34,157.82c2.23-.49,2.93-.15,5.61,2.73,1.68,1.81,3.9,3.55,4.93,3.87,4.26,1.33.33,3.79-6.05,3.79-3.59,0-3.65-.04-2.85-2.13h0c1.18-3.11,1.06-3.43-1.68-4.39-3.23-1.13-3.21-3.16.06-3.87ZM934.62,166.08c.35-1.79,6.2-4.34,7.33-3.19,1.27,1.3-1.31,3.71-4.55,4.23-2.69.44-3.04.3-2.78-1.04ZM1045.57,275.72c-1.03,1.64-2.63,4.19-3.56,5.66-2.03,3.23-5.63,4.06-6.94,1.6h0c-.63-1.17-.46-2.66.65-5.66,1.23-3.33,2.16-4.4,5.12-5.93,6.6-3.41,8.48-1.68,4.72,4.32Z"/>
      <path class="st34" d="M1031.45,150.26c-2.59-.59-2.99.51-.94,2.57.8.8,1.81,1.1,4.99,1.07-.9-1.16-1.79-2.29-2.67-3.37-.56-.1-1.05-.19-1.39-.26Z"/>
    </g>
    <g>
      <path class="st32" d="M820.22,288.15c-1.78-1.36-4.6-3.19-6.26-4.05-2.67-1.38-3.09-2.03-3.55-5.53-.41-3.11-.16-4.65,1.16-7.11,2.71-5.05,1.83-9.46-2.07-10.45-1.35-.34-1.27-.44.44-.52,2.64-.14,3.79-.91,4.47-2.99.86-2.65,6.33-5.93,10.9-6.53,2.28-.3,6.45-1.36,9.25-2.37,5.04-1.8,5.14-1.81,8.54-.27.72.33,1.53.6,2.37.81,13.75-24.4,28.55-43.6,41.42-60.13,8.88-11.41,19.94-24.62,33.44-38.76-2.72,1.08-7.16,2.17-9.42,2.13-1.4-.03-3.48-.47-4.62-.97h0c-1.96-.87-1.84-.96,2.08-1.59,6.99-1.13,11.98-1.59,13.64-1.3,5.06-5.81,11.27-12.15,18.77-18.51,9.75-8.27,19.21-14.46,27.38-19.07-12.69-.21-28.32.11-46.14,1.78-14.23,1.34-36.17,4.14-62.38,10.66-18.86,4.69-41.92,11.81-67.32,22.89-27.85,11.56-50.35,24.52-67.32,35.68-33.26,21.87-55.12,43.29-62.27,50.49-23.36,23.52-37.82,44.38-42.41,51.16-17.89,26.45-27.76,49.07-31.3,57.56-13.25,31.74-18.06,57.73-19.52,66.31-2.79,16.43-3.76,30.61-4.04,41.4,12-10.89,58.4-50.41,128.58-51.5,52.44-.81,90.77,20.25,106.36,30.03,0-13.87.75-31.74,3.6-52.35,5.31-38.4,15.22-66.97,19.29-77.99.79-2.14,1.6-4.24,2.42-6.31-2.12-.5-3.74-1.28-5.45-2.59ZM809.92,242.95c-.69.44-3.11.77-5.4.73-3.31-.06-3.73-.2-2.08-.73,3.13-1,9.03-1,7.47,0ZM816.84,242.95c-.26,0-.05-.52.48-1.16,1.08-1.3,4.23-2.34,4.23-1.39,0,.58-3.64,2.55-4.71,2.55ZM747.98,179.08h0c.79-.88,3.46-2.41,5.93-3.42,2.47-1,4.32-2.1,4.11-2.44-.66-1.08,16.29-9.96,35.7-18.71,4.8-2.16,20.3-7.07,31.28-9.9,6.09-1.57,13.68-3.85,16.87-5.05,22.04-8.37,45.32-13.12,63.56-12.96,3.88.03,9.21-.24,11.83-.62,2.63-.37,4.78-.42,4.78-.12s-2.24,1.18-4.98,1.94c-4.39,1.22-4.98,1.63-4.98,3.46,0,1.29-.47,2.07-1.25,2.07-.69,0-1.25.37-1.25.83s.37.83.83.83c1.72,0,.74,1.67-1.74,2.95-1.9.98-2.46,1.76-2.15,2.96.57,2.17-1.52,3.41-10.23,6.08-15.74,4.83-23.34,8.19-27.38,12.1-2.12,2.06-4.43,4.65-5.13,5.77-1.89,3.01-10.44,3.45-17.28.9-5.49-2.05-6.91-3.96-4.25-5.73,3.58-2.38,1.34-3.16-3.61-1.27-.87.33-1.32.05-1.32-.83,0-.73-.54-1.33-1.2-1.33s-1.5-.5-1.87-1.11c-1.72-2.88-7.75-2.26-23.83,2.45-12.94,3.79-15.65,3.4-6.52-.96,7.12-3.4,8.32-4.54,4.75-4.54-4.33,0-21.08,10.1-23.91,14.42-.7,1.07-2.51,2.4-4.03,2.97-1.52.57-5.84,2.49-9.6,4.28-7.74,3.68-7.82,3.7-7.17,2,.6-1.57-1.26-1.63-3.46-.12-1.87,1.29-11.16,4.68-12.83,4.68-.81,0-.73-.43.33-1.59ZM762.04,178.49c1.12.28,4.65-.8,9.24-2.83,9.53-4.22,11-4.2,2.76.05-8.37,4.31-16.77,7.45-17.97,6.71h0c-1.54-.95,3.82-4.46,5.98-3.92ZM746.8,183.58c1.14-.65,3.2-1.19,4.57-1.19h2.49l-2.08,1.19c-1.14.65-3.2,1.19-4.57,1.19h-2.49l2.08-1.19ZM747.63,192.28c0,.92-6.01,4.18-7.65,4.14-.59-.01.15-1.13,1.64-2.49,2.62-2.39,6.01-3.32,6.01-1.65ZM738.32,191.27h0c.97-1.17,4.33-2.58,4.33-1.82,0,.17-1.21.94-2.7,1.71-2.28,1.18-2.53,1.2-1.63.11ZM699.72,214.01h0c1.95-2.09,7.84-5.4,13.78-7.75,2.01-.8,4.63-2.37,5.81-3.5,2.21-2.11,6.74-4.26,6.7-3.18-.05,1.21-11.2,8.18-19.55,12.23-6.78,3.29-8.18,3.75-6.74,2.2ZM806.41,263.01c-.27.79-1.68,1.05-4.87.89-2.47-.13-8.42-.31-13.22-.4-8.11-.16-9.03,0-13.18,2.16-2.45,1.28-7.26,2.87-10.69,3.52-5.87,1.12-6.38,1.1-8.83-.41-1.73-1.06-5.52-1.92-11.29-2.56-4.78-.53-8.96-1.12-9.29-1.32-.33-.2-.86.05-1.17.57-.79,1.28.91,2.2,6.07,3.28,2.4.5,4.36,1.18,4.36,1.52,0,.91-8.43-.23-10.63-1.44-1.28-.7-4.62-.96-10.11-.79-7.28.23-8.47.06-10.55-1.49-1.29-.96-2.96-3.39-3.7-5.4l-1.36-3.65-8.19-.2c-6.59-.16-8.92.12-11.93,1.42-2.06.89-5.8,2.01-8.32,2.5-2.52.49-5.57,1.53-6.78,2.32-10.54,6.86-15.75,10.96-18.86,14.82-2.01,2.49-4.04,4.4-4.52,4.24-.48-.16-2.47,2.88-4.41,6.75-1.94,3.87-4.16,7.64-4.92,8.36-1.28,1.21-1.31,1.17-.45-.5,1.48-2.89-.16-2.89-3.41,0-1.64,1.46-5.12,3.87-7.72,5.36l-4.73,2.71.56-2.24c.31-1.23,1.47-3.32,2.58-4.64,1.78-2.12,2.58-3.94,1.74-3.94-.16,0-2.29,1.92-4.74,4.27-5.2,4.98-6.69,4.03-1.69-1.08,1.87-1.9,3.25-3.6,3.08-3.78-.17-.17-1.67.49-3.33,1.46-1.66.98-3.01,1.53-3.01,1.24,0-1.05,12.33-16.7,15.48-19.65,4-3.75,15.61-12.87,30.19-23.73,6.17-4.59,12.89-10.11,14.95-12.27,4.04-4.24,8.24-7.37,14.12-10.52,6.68-3.59,15.79-9.99,15.32-10.76-1.14-1.85-5.36-.66-9.08,2.56-4.42,3.83-6.98,5.35-7.74,4.59-.7-.7,1.57-4.65,3.16-5.51.69-.37,5.54-3,10.8-5.85,5.25-2.85,11.59-6.24,14.08-7.53,2.49-1.29,5.53-3.55,6.75-5.01,2.06-2.47,2.37-2.58,4.3-1.55,1.35.72,3.06.9,4.88.51l2.8-.6-2.01,2.17c-2.54,2.74-1.79,2.73,3.87-.04,2.66-1.3,4.81-2.98,5.23-4.1.4-1.04,1.44-2.28,2.31-2.74.97-.52,1.8-2.14,2.11-4.13.29-1.8.78-3.94,1.09-4.74.45-1.17.25-1.35-1.04-.9-1.56.55-1.56.53.02-.69,1.21-.94,1.76-1,2.22-.26.47.76,1.15.75,2.96-.07l2.34-1.06-1.87,2c-1.03,1.1-1.87,2.28-1.87,2.64,0,.74,8.83.17,13.61-.87,3.14-.68,5.6-2.95,4.45-4.1-.31-.31-2.23-.1-4.27.47-9.08,2.54-4.46-3.4,6.07-7.81,8.66-3.63,12.88-4.84,24.89-7.13,7.16-1.37,9.89-1.59,11.21-.91,1.14.59,3.42.66,6.55.21,3.36-.48,4.71-.41,4.5.22-.47,1.43-4.07,2.95-7.02,2.97-1.48,0-2.7.39-2.7.84s1.31.83,2.91.83,2.91.33,2.91.73c0,1.72-4.85,3.66-11.93,4.76-4.17.65-8.44,1.54-9.48,1.99-1.47.63-1.24.16,1.04-2.12,4.58-4.58,3.56-6.09-1.85-2.74-2.64,1.63-2.97,1.67-3.67.42-1.04-1.85-2.12-1.74-7.08.73-3.33,1.66-4.14,2.45-3.81,3.7.24.91-.36,2.58-1.4,3.91l-1.82,2.31,1.94.48c1.78.44,1.65.63-1.65,2.34-2.9,1.5-3.83,1.66-4.82.84-1.02-.85-2.27.01-7.47,5.14-7.13,7.04-8.36,8.82-7.03,10.16,1.11,1.11,9.55-.2,18.78-2.92,5.28-1.55,6.62-1.68,8.97-.83,3.64,1.32,5.13,1.26,6.38-.25.83-1,.82-1.5-.03-2.52-.88-1.06-.75-1.56.73-2.94,2.04-1.9,2.39-4.92.56-4.92-1.26,0-2.51-3.3-1.92-5.07.32-.95,5.39-2.64,11.3-3.77,1.51-.29,4.17-.06,5.9.52,3.53,1.16,5.9.39,8.46-2.78,1.39-1.71,1.45-1.72,5.58-.23,2.3.83,6.73,1.76,9.84,2.06,5.04.5,5.69.77,5.93,2.43.18,1.25,1.01,2.03,2.49,2.35,3.93.86,4.61,1.2,3.82,1.95-.84.79-9.54,2.77-10.03,2.28-.17-.17.24-1.38.92-2.68.68-1.3,1.07-2.52.89-2.71-.19-.19-2.78.99-5.75,2.63-2.98,1.64-7.48,3.57-10.01,4.31-5.12,1.49-6.4,3.4-1.69,2.52,2.34-.44,2.91-.29,2.91.79s.64,1.24,3.94.76l3.94-.57-2.08,1.64c-3.23,2.56-5.58,3.59-6.95,3.06-1.83-.7-8.83,4.35-8.83,6.37,0,.91-.53,1.85-1.19,2.1-2.03.78-7.12,7.97-7.12,10.06,0,1.27-1.51,3.55-4.15,6.28-4.54,4.68-5.01,6.37-2.49,8.89,1.53,1.53,2.29,4.15,1.2,4.15-.25,0-1.89-.82-3.63-1.82-2.85-1.64-3.51-1.72-6.56-.81-1.87.56-4.45,1.91-5.75,3-1.3,1.09-4.54,3.01-7.2,4.28-6.1,2.89-8.2,5.93-7.67,11.1.45,4.37,2.75,6.68,6.66,6.67,3.34,0,7.69-2.65,8.44-5.13.76-2.48,2.83-4.83,4.26-4.83.77,0,1.12,1.16,1.12,3.74,0,2.06.2,3.74.45,3.74s1.96-.77,3.82-1.72c4.06-2.07,5.3-1.73,5.98,1.66.65,3.25,3.64,4.84,6.36,3.39,1.51-.81,1.79-.79,1.48.12Z"/>
      <path class="st27" d="M721.07,213.89c-1.51,0-5.83,2.46-5.83,3.32,0,1.03,3.87-.43,5.52-2.08.73-.73.86-1.24.31-1.24Z"/>
    </g>
  </g>
  <path id="PONTA" class="st33" d="M971.95,77.78h.09c3.13,0,5.67,2.54,5.67,5.67v27.47h-11.25v-27.64c0-3.03,2.46-5.5,5.5-5.5Z"/>
  <path id="PIN" class="st19" d="M1010.5,499.65c-18.73-23.17-47.05-24.45-52.51-24.57-5.74-.13-25.96.11-44.77,14.47-15.84,12.09-21.69,27.34-22.89,30.63-7.14,19.59-2.7,36.5-1.35,41.4,2.05,7.39,4.82,12.52,6.06,14.81,2.27,4.2,26.43,48.81,60.25,110.4,21.01-32.57,37.73-61.2,50.49-84.15,11.49-20.67,18.7-35.11,19.19-55.2.18-7.53.7-29.03-14.47-47.8ZM955.71,583.7c-11.96,0-21.65-9.69-21.65-21.65s9.69-21.65,21.65-21.65,21.65,9.69,21.65,21.65-9.69,21.65-21.65,21.65Z"/>
  <path id="PONTA1" data-name="PONTA" class="st33" d="M958.82,542.02c1.43.24,4.13.72,7.08,2.48,1.32.79,2.31,1.61,2.98,2.22-1.06.69-2.45,1.57-4.08,2.58,0,0-.8.5-1.43.87-3.58,2.08-11.55,5.92-21.97,5.11-2.71-.21-11.17-.99-19.19-7.28-1.94-1.52-8.35-6.69-11.11-15.78-1.59-5.25-2.65-14.05,1.29-17.28.45-.37,2.05-1.68,4.18-1.57,1.96.1,3.32,1.34,3.78,1.77,3.26,3.06,1.2,6.99,3.21,12.7,2.07,5.88,6.87,9.11,7.83,9.75,4.66,3.13,9.38,3.78,11.36,3.99,2.25.24,5.23.22,11.21.18,1.77-.01,3.04-.05,4.85.25Z"/>
  <g id="MARCAÇAO_PIN">
    <path class="st29" d="M902.74,648.58c-1.02.93-2.05,1.84-3.08,2.73-1.05.87-1.99,1.87-2.98,2.8-.48.48-1,.91-1.47,1.4l-1.4,1.46-1.39,1.45-1.3,1.52c-1.75,2.01-3.3,4.14-4.71,6.3-1.33,2.2-2.52,4.44-3.27,6.73-.76,2.27-1.16,4.59-.97,6.65.24,2.07.88,4.13,1.99,6,1.1,1.88,2.57,3.64,4.27,5.25,1.69,1.63,3.7,3.04,5.75,4.39,8.38,5.3,18.35,8.74,28.41,11.16,5.06,1.17,10.18,2.17,15.34,2.77,5.15.64,10.33,1.05,15.46,1.03,5.11.05,10.27-.31,15.42-.97,5.15-.59,10.28-1.58,15.34-2.76,10.08-2.41,20.06-5.83,28.63-10.99,2.1-1.32,4.14-2.7,5.95-4.26,1.8-1.56,3.38-3.28,4.62-5.11,1.24-1.83,2.08-3.81,2.43-5.88.33-2.08.17-4.29-.46-6.54-.59-2.27-1.77-4.49-3.11-6.65-.65-1.1-1.44-2.13-2.2-3.19-.84-1.01-1.63-2.06-2.53-3.05-1.75-2.01-3.66-3.91-5.66-5.74-1.97-1.87-4.07-3.62-6.18-5.39,5.01,2.28,9.86,5,14.34,8.44,2.27,1.69,4.4,3.6,6.35,5.78,1.94,2.18,3.76,4.6,5.06,7.46,1.31,2.84,2.09,6.11,2.04,9.48-.07,3.37-1.06,6.68-2.52,9.57-1.46,2.92-3.4,5.44-5.49,7.69-2.11,2.24-4.4,4.21-6.79,5.98-4.78,3.55-9.9,6.34-15.16,8.71-5.26,2.36-10.67,4.26-16.17,5.82-11,3.07-22.36,4.82-33.97,4.81-11.57-.1-22.91-1.81-33.92-4.91-5.5-1.56-10.92-3.48-16.18-5.89-5.26-2.41-10.38-5.27-15.11-8.96-2.36-1.84-4.63-3.87-6.66-6.25-2.02-2.36-3.85-5.03-5.12-8.07-1.29-3.03-1.97-6.39-1.82-9.77.22-3.41,1.27-6.47,2.66-9.2,1.42-2.72,3.2-5.1,5.11-7.28,1.02-1.03,1.96-2.13,3.04-3.05l1.58-1.43c.53-.47,1.11-.88,1.66-1.32l1.66-1.3,1.72-1.2c1.14-.8,2.28-1.59,3.49-2.29,2.37-1.45,4.82-2.73,7.28-3.95Z"/>
  </g>
  <g id="BRASIL">
    <rect class="st1" x="610.71" y="711.83" width="213.41" height="112.49"/>
    <polygon class="st31" points="651.9 768.64 717.67 726.18 783.75 768.53 717.81 811.35 651.9 768.64"/>
    <ellipse class="st26" cx="717.88" cy="768.51" rx="27.86" ry="28.18"/>
    <path class="st21" d="M715.3,757.43c19.05,4.05,30.13,15.33,30.13,15.33-.29,2.19-1.03,4.46-1.03,4.46-12.25-11.72-27.55-14.88-27.55-14.88-13.63-3.32-25.93-.93-25.93-.93.39-1.59,1.49-4.32,1.49-4.32,0,0,9.29-1.74,22.9.34Z"/>
    <polygon class="st21" points="695.11 762.29 695.37 763.12 696.24 763.12 695.54 763.64 695.81 764.47 695.11 763.96 694.4 764.47 694.67 763.64 693.97 763.12 694.84 763.12 695.11 762.29"/>
    <polygon class="st21" points="707.21 768.68 707.44 769.41 708.2 769.41 707.59 769.86 707.82 770.58 707.21 770.13 706.6 770.58 706.83 769.86 706.22 769.41 706.97 769.41 707.21 768.68"/>
    <polygon class="st21" points="700.33 772.92 700.47 773.36 700.93 773.36 700.56 773.64 700.7 774.08 700.33 773.81 699.96 774.08 700.1 773.64 699.73 773.36 700.19 773.36 700.33 772.92"/>
    <polygon class="st21" points="697.57 774.07 697.87 775 698.83 775 698.05 775.57 698.35 776.5 697.57 775.93 696.79 776.5 697.09 775.57 696.31 775 697.27 775 697.57 774.07"/>
    <polygon class="st21" points="694.11 776.92 694.33 777.6 695.05 777.6 694.47 778.03 694.69 778.71 694.11 778.29 693.54 778.71 693.76 778.03 693.18 777.6 693.89 777.6 694.11 776.92"/>
    <polygon class="st21" points="703.37 777.19 703.59 777.87 704.31 777.87 703.73 778.3 703.95 778.98 703.37 778.56 702.79 778.98 703.01 778.3 702.44 777.87 703.15 777.87 703.37 777.19"/>
    <polygon class="st21" points="702.53 780.01 702.75 780.7 703.46 780.7 702.88 781.12 703.1 781.81 702.53 781.38 701.95 781.81 702.17 781.12 701.59 780.7 702.31 780.7 702.53 780.01"/>
    <polygon class="st21" points="706.65 782.44 706.89 783.2 707.69 783.2 707.04 783.68 707.29 784.44 706.65 783.97 706 784.44 706.25 783.68 705.6 783.2 706.4 783.2 706.65 782.44"/>
    <polygon class="st21" points="717.79 780.17 718.04 780.93 718.83 780.93 718.19 781.41 718.44 782.17 717.79 781.7 717.15 782.17 717.39 781.41 716.75 780.93 717.54 780.93 717.79 780.17"/>
    <polygon class="st21" points="721.06 774.62 721.29 775.33 722.03 775.33 721.43 775.77 721.66 776.48 721.06 776.04 720.47 776.48 720.7 775.77 720.1 775.33 720.84 775.33 721.06 774.62"/>
    <polygon class="st21" points="717.79 772.06 718.02 772.77 718.76 772.77 718.16 773.21 718.39 773.92 717.79 773.48 717.19 773.92 717.42 773.21 716.82 772.77 717.56 772.77 717.79 772.06"/>
    <polygon class="st21" points="714.98 774.64 715.18 775.27 715.83 775.27 715.3 775.66 715.51 776.29 714.98 775.9 714.45 776.29 714.65 775.66 714.12 775.27 714.78 775.27 714.98 774.64"/>
    <polygon class="st21" points="716.38 776.9 716.53 777.37 717.01 777.37 716.62 777.65 716.77 778.12 716.38 777.83 715.98 778.12 716.13 777.65 715.74 777.37 716.23 777.37 716.38 776.9"/>
    <polygon class="st21" points="725.39 766.53 725.54 767 726.03 767 725.64 767.28 725.79 767.75 725.39 767.46 725 767.75 725.15 767.28 724.76 767 725.24 767 725.39 766.53"/>
    <polygon class="st21" points="726.46 758.53 726.74 759.4 727.64 759.4 726.91 759.93 727.19 760.79 726.46 760.26 725.73 760.79 726.01 759.93 725.28 759.4 726.18 759.4 726.46 758.53"/>
    <polygon class="st21" points="737.31 777.24 737.59 778.11 738.49 778.11 737.76 778.64 738.04 779.51 737.31 778.97 736.59 779.51 736.86 778.64 736.14 778.11 737.03 778.11 737.31 777.24"/>
    <polygon class="st21" points="736.72 782.12 736.96 782.84 737.71 782.84 737.1 783.28 737.33 784.01 736.72 783.56 736.12 784.01 736.35 783.28 735.74 782.84 736.49 782.84 736.72 782.12"/>
    <polygon class="st21" points="738.45 779.96 738.69 780.68 739.44 780.68 738.83 781.13 739.06 781.85 738.45 781.4 737.85 781.85 738.08 781.13 737.47 780.68 738.22 780.68 738.45 779.96"/>
    <polygon class="st21" points="741.18 777.84 741.35 778.39 741.93 778.39 741.46 778.73 741.64 779.28 741.18 778.94 740.71 779.28 740.89 778.73 740.42 778.39 741 778.39 741.18 777.84"/>
    <polygon class="st21" points="734.52 783.83 734.69 784.38 735.27 784.38 734.8 784.72 734.98 785.27 734.52 784.93 734.05 785.27 734.23 784.72 733.77 784.38 734.34 784.38 734.52 783.83"/>
    <polygon class="st21" points="731.76 785.91 731.96 786.55 732.62 786.55 732.09 786.94 732.29 787.57 731.76 787.18 731.23 787.57 731.43 786.94 730.9 786.55 731.55 786.55 731.76 785.91"/>
    <polygon class="st21" points="731.57 783.3 731.74 783.83 732.29 783.83 731.85 784.15 732.02 784.68 731.57 784.35 731.13 784.68 731.3 784.15 730.86 783.83 731.41 783.83 731.57 783.3"/>
    <polygon class="st21" points="728.56 784.31 728.73 784.83 729.27 784.83 728.83 785.16 729 785.68 728.56 785.36 728.12 785.68 728.29 785.16 727.84 784.83 728.39 784.83 728.56 784.31"/>
    <polygon class="st21" points="723.96 783.56 724.13 784.09 724.67 784.09 724.23 784.41 724.4 784.94 723.96 784.61 723.52 784.94 723.69 784.41 723.25 784.09 723.79 784.09 723.96 783.56"/>
    <polygon class="st21" points="731.74 789 731.91 789.52 732.46 789.52 732.02 789.85 732.19 790.37 731.74 790.05 731.3 790.37 731.47 789.85 731.03 789.52 731.57 789.52 731.74 789"/>
    <polygon class="st21" points="726.19 786.66 726.39 787.29 727.06 787.29 726.52 787.69 726.73 788.33 726.19 787.93 725.65 788.33 725.86 787.69 725.32 787.29 725.98 787.29 726.19 786.66"/>
    <polygon class="st21" points="717.88 790.19 717.97 790.49 718.28 790.49 718.03 790.67 718.13 790.97 717.88 790.79 717.63 790.97 717.72 790.67 717.47 790.49 717.78 790.49 717.88 790.19"/>
    <g>
      <path class="st1" d="M694.87,758.72c.15.8-.31,1.3-.97,1.4-.69.1-1.29-.29-1.46-.99-.18-.74.24-1.31.97-1.42.75-.11,1.33.32,1.46,1.01ZM692.81,759.06c.12.5.53.89,1.06.81.54-.08.75-.56.64-1.09-.09-.46-.47-.91-1.06-.83-.58.09-.76.59-.64,1.1Z"/>
      <path class="st1" d="M696.33,757.42c.17-.05.43-.09.67-.11.38-.03.63,0,.82.13.15.09.25.25.27.43.04.31-.16.53-.43.64,0,0,0,0,0,.01.22.05.36.21.46.44.13.32.22.54.29.63-.12,0-.23.02-.35.03-.05-.06-.14-.26-.25-.55-.12-.32-.29-.43-.6-.41-.11,0-.22.02-.33.03.05.34.11.68.16,1.02-.11.01-.23.02-.34.03-.13-.77-.25-1.54-.38-2.31ZM696.85,758.46c.12-.01.24-.02.35-.03.37-.03.58-.23.54-.5-.04-.3-.32-.42-.69-.39-.17.01-.29.04-.34.06.04.29.09.57.13.86Z"/>
      <path class="st1" d="M699.74,757.19c.21-.04.47-.07.75-.08.51-.01.88.08,1.13.27.26.19.41.46.43.84.02.38-.09.7-.33.92-.23.22-.63.35-1.14.36-.24,0-.45,0-.62,0-.08-.77-.16-1.54-.23-2.32ZM700.29,759.25c.09.01.21.01.35,0,.73-.02,1.1-.39,1.06-1.02-.03-.56-.42-.91-1.17-.89-.18,0-.32.02-.41.04.06.62.12,1.24.17,1.86Z"/>
      <path class="st1" d="M705.09,758.41c-.35-.02-.69-.03-1.04-.04,0,.28.01.57.02.85.38.01.76.02,1.14.04v.25c-.49-.02-.98-.04-1.47-.05-.02-.79-.04-1.57-.07-2.36.49.01.99.03,1.48.05,0,.08,0,.17,0,.25-.37-.02-.75-.03-1.12-.04,0,.25.01.5.02.74.35,0,.7.02,1.05.04,0,.08,0,.17,0,.25Z"/>
      <path class="st1" d="M709.08,758.79c0-.33,0-.72.03-1.01,0,0,0,0-.01,0-.11.26-.24.54-.4.85-.18.36-.36.73-.54,1.09-.09,0-.17-.02-.26-.02-.12-.39-.25-.77-.37-1.15-.11-.34-.21-.65-.27-.94,0,0,0,0,0,0-.02.29-.05.68-.09,1.03-.04.33-.07.67-.11,1-.11,0-.21-.02-.32-.02.08-.78.17-1.56.26-2.34.15.01.3.02.45.04.14.39.28.78.41,1.17.1.3.17.56.23.81,0,0,0,0,.01,0,.08-.23.19-.48.32-.76.18-.36.37-.72.55-1.08.15.02.3.03.45.05,0,.79-.01,1.57-.02,2.36-.11-.01-.22-.03-.33-.04,0-.34,0-.69,0-1.03Z"/>
      <path class="st1" d="M714.56,759.58c-.34-.07-.68-.13-1.02-.2-.04.28-.09.56-.13.83.37.07.75.14,1.12.22-.02.08-.03.17-.05.25-.48-.1-.96-.19-1.45-.28.12-.77.24-1.54.35-2.31.48.09.97.18,1.45.28-.02.08-.03.17-.04.25-.37-.07-.73-.15-1.1-.21-.04.24-.08.49-.12.73.34.06.68.13,1.02.2-.01.08-.03.16-.04.25Z"/>
      <path class="st1" d="M718.55,759.26c.17.02.39.06.67.13.34.09.56.23.69.4.11.15.15.34.09.54-.06.2-.17.34-.34.42-.22.11-.53.11-.85.02-.1-.03-.19-.06-.26-.09-.08.3-.16.6-.24.91-.11-.03-.22-.06-.33-.09.19-.75.38-1.49.57-2.24ZM718.6,760.45c.07.04.16.07.27.1.4.11.69.01.78-.3.08-.3-.12-.51-.49-.62-.15-.04-.26-.06-.33-.06-.08.29-.15.59-.23.88Z"/>
      <path class="st1" d="M721.78,760.22c.18.03.43.09.66.17.36.12.57.26.69.44.09.14.11.32.05.49-.1.29-.38.41-.68.4,0,0,0,0,0,0,.18.13.23.32.21.57-.03.34-.04.57-.02.67-.11-.04-.22-.08-.33-.12-.02-.08,0-.29.02-.58.03-.33-.06-.49-.36-.6-.1-.03-.21-.07-.31-.1-.11.32-.21.64-.32.96-.11-.04-.21-.07-.32-.11.24-.73.47-1.46.71-2.19ZM721.78,761.34c.11.04.22.07.34.11.35.12.63.03.72-.22.1-.28-.1-.49-.45-.61-.16-.05-.28-.08-.34-.08-.09.27-.18.54-.27.81Z"/>
      <path class="st1" d="M726.71,763.26c-.33.73-1.01.91-1.62.66-.64-.26-.92-.87-.66-1.53.27-.69.95-.95,1.63-.68.7.28.94.92.66,1.55ZM724.77,762.51c-.18.46-.06.99.43,1.19.5.2.95-.08,1.17-.57.19-.42.12-.98-.42-1.2-.54-.22-.99.11-1.17.58Z"/>
      <path class="st1" d="M729.55,765.77c-.16-.02-.46-.09-.78-.24-.36-.17-.61-.39-.75-.7-.12-.27-.12-.61.04-.94.3-.63,1.03-.86,1.87-.46.29.14.48.3.56.4-.06.06-.13.12-.19.18-.1-.11-.25-.23-.5-.35-.6-.29-1.15-.15-1.4.38-.26.53-.05,1.02.51,1.28.2.1.35.14.44.14.11-.21.22-.41.32-.62-.16-.08-.33-.16-.49-.24.04-.07.07-.14.11-.22.27.13.53.26.79.39-.18.33-.35.66-.53.99Z"/>
      <path class="st1" d="M732.15,764.63c.17.06.41.16.62.28.33.18.51.35.59.55.07.16.05.33-.05.49-.16.26-.46.33-.75.26,0,0,0,0,0,0,.15.15.17.36.1.6-.09.32-.16.54-.16.65-.1-.06-.2-.12-.31-.17,0-.08.05-.28.14-.57.1-.32.04-.49-.23-.65-.1-.05-.19-.1-.29-.16-.17.29-.34.58-.51.88-.1-.05-.2-.11-.3-.16.38-.67.77-1.34,1.15-2ZM731.92,765.72c.1.06.21.11.31.17.32.18.62.14.76-.09.16-.26,0-.5-.32-.68-.15-.08-.26-.13-.32-.14-.14.25-.29.49-.43.74Z"/>
      <path class="st1" d="M735.62,768.07c-.29-.19-.59-.37-.89-.55-.16.23-.31.47-.47.7.33.2.65.4.97.61-.05.07-.1.14-.15.21-.42-.27-.83-.53-1.26-.78.43-.65.86-1.31,1.29-1.96.42.26.84.52,1.26.78-.05.07-.1.14-.15.21-.32-.2-.63-.4-.95-.6-.14.21-.28.41-.41.62.3.18.59.37.89.56-.05.07-.1.14-.14.21Z"/>
      <path class="st1" d="M736.62,769.6c.08.15.22.33.41.47.29.2.55.19.7,0,.14-.17.1-.36-.13-.66-.28-.36-.39-.67-.19-.94.22-.29.68-.31,1.12,0,.23.16.36.32.43.44-.08.05-.16.09-.23.14-.05-.09-.15-.25-.36-.39-.31-.21-.54-.14-.64-.01-.13.18-.06.36.17.67.28.38.35.67.13.94-.23.28-.67.35-1.18,0-.21-.14-.4-.35-.47-.5.07-.05.15-.1.22-.16Z"/>
      <path class="st1" d="M739.16,771.42c.07.16.2.35.39.49.28.21.55.22.7.04.15-.16.12-.35-.09-.67-.26-.37-.35-.69-.13-.94.24-.28.7-.28,1.12.05.22.17.35.34.4.46-.08.04-.16.08-.24.13-.04-.09-.14-.25-.34-.41-.3-.23-.54-.17-.64-.05-.14.17-.08.35.13.68.26.4.31.69.08.95-.24.27-.69.32-1.18-.06-.2-.16-.38-.38-.44-.52.08-.05.16-.1.23-.14Z"/>
      <path class="st1" d="M743.96,774.33c-.59.56-1.31.49-1.82.05-.52-.46-.57-1.13-.08-1.65.51-.55,1.27-.55,1.83-.06.57.5.57,1.18.06,1.66ZM742.36,772.97c-.35.37-.43.89-.02,1.25.41.36.96.25,1.34-.12.34-.33.48-.87.03-1.26-.45-.39-1-.24-1.35.13Z"/>
    </g>
  </g>
  <g id="ARGENTINA">
    <rect class="st37" x="1087.06" y="711.12" width="213.4" height="112.38"/>
    <rect class="st21" x="1087.06" y="744.89" width="213.4" height="47.46"/>
    <g>
      <g>
        <g>
          <path class="st23" d="M1193.37,749.39c-.31.4-.51,10.55-.51,11.65h1.18s.09-10.84-.3-11.69c-.18-.37-.38.04-.38.04Z"/>
          <path class="st28" d="M1194.11,761.11h-1.31v-.07c0-.59.17-11.25.52-11.69,0-.01.11-.22.26-.22.09,0,.16.06.23.19.39.86.31,11.28.31,11.72v.07ZM1192.93,760.97h1.05c0-.92.07-10.8-.29-11.59-.04-.07-.07-.11-.11-.11-.05,0-.12.09-.15.16-.29.39-.49,9.99-.5,11.55Z"/>
        </g>
        <polygon class="st28" points="1193.38 761.01 1193.44 754.02 1193.56 760.99 1193.38 761.01"/>
      </g>
      <g>
        <g>
          <path class="st23" d="M1186.09,751.02c-.13.49,3.66,9.86,4.09,10.87l1.08-.49s-4.15-9.95-4.84-10.57c-.31-.26-.33.2-.33.2Z"/>
          <path class="st28" d="M1190.14,761.98l-.03-.06c-.23-.54-4.24-10.37-4.09-10.92,0-.11.05-.33.22-.33.06,0,.13.03.21.1.69.62,4.69,10.19,4.86,10.6l.03.06-1.2.55ZM1186.25,750.81c-.06,0-.09.14-.09.21-.11.48,3.45,9.35,4.05,10.78l.96-.44c-.35-.85-4.15-9.91-4.8-10.49-.07-.06-.11-.06-.12-.06Z"/>
        </g>
        <polygon class="st28" points="1190.63 761.65 1187.96 755.23 1190.79 761.56 1190.63 761.65"/>
      </g>
      <g>
        <g>
          <path class="st23" d="M1200.75,751.02c-.44.23-4.59,9.44-5.02,10.44l1.08.49s4.32-9.88,4.3-10.82c-.02-.42-.36-.12-.36-.12Z"/>
          <path class="st28" d="M1196.84,762.05l-1.2-.55.03-.06c.23-.54,4.56-10.22,5.05-10.48,0,0,.13-.11.25-.11.07,0,.2.04.21.29.02.95-4.13,10.45-4.31,10.85l-.03.06ZM1195.81,761.43l.96.44c.37-.84,4.29-9.85,4.27-10.73,0-.1-.03-.15-.08-.15-.06,0-.15.06-.17.09-.42.23-4.36,8.93-4.98,10.36Z"/>
        </g>
        <polygon class="st28" points="1196.21 761.65 1199 755.28 1196.38 761.71 1196.21 761.65"/>
      </g>
      <g>
        <g>
          <path class="st23" d="M1206.55,754.99c-.49.05-7.6,7.07-8.35,7.85l.83.86s7.5-7.58,7.81-8.47c.12-.4-.29-.24-.29-.24Z"/>
          <path class="st28" d="M1199.04,763.8l-.93-.96.05-.05c.41-.42,7.84-7.8,8.39-7.87,0,0,.08-.03.17-.03.11,0,.16.05.19.08.05.07.05.16.01.28-.31.89-7.52,8.19-7.83,8.5l-.05.05ZM1198.3,762.84l.74.77c.64-.65,7.46-7.57,7.75-8.4.02-.07.03-.13,0-.15-.02-.02-.05-.03-.08-.03-.07,0-.14.02-.14.02-.47.06-7.2,6.69-8.28,7.79Z"/>
        </g>
        <polygon class="st28" points="1198.58 763.2 1203.42 758.31 1198.72 763.31 1198.58 763.2"/>
      </g>
      <g>
        <g>
          <path class="st23" d="M1197.57,749.88c-.31-.01-1.32.59-1.35,1.86-.03,1.28-.23,2.67-.37,3.12-.13.45-.94,2.43-1.18,3.56-.23,1.1-.24,2.63-.24,2.63l1.12.29s.24-1.78.22-2.33c-.02-.55.75-2.99.93-3.48.27-.71.25-1.86.18-2.62-.07-.76-.42-1.48.05-1.98.45-.48,1.09-1.04.64-1.05Z"/>
          <path class="st28" d="M1195.6,761.44l-1.24-.33v-.05s0-1.56.24-2.65c.17-.8.62-2.02.92-2.82.13-.34.23-.61.26-.74.13-.44.33-1.83.36-3.1.03-1.25,1.02-1.93,1.41-1.93.12,0,.19.04.22.11.06.16-.16.4-.56.81-.08.08-.16.17-.24.25-.32.34-.23.79-.13,1.31.04.2.08.41.1.62.04.41.13,1.81-.19,2.65-.2.53-.95,2.93-.93,3.46.02.55-.21,2.27-.22,2.34v.08ZM1194.49,761.01l1,.26c.04-.35.22-1.77.21-2.24-.02-.57.75-3.02.94-3.51.31-.81.21-2.19.18-2.59-.02-.2-.06-.41-.09-.6-.1-.54-.2-1.05.16-1.44.08-.08.16-.17.24-.25.21-.22.56-.58.53-.66,0,0-.02-.02-.09-.02h0c-.29,0-1.25.56-1.28,1.8-.03,1.29-.24,2.7-.37,3.14-.04.14-.14.41-.27.75-.3.8-.74,2.01-.91,2.8-.21.96-.24,2.28-.24,2.56Z"/>
        </g>
        <path class="st28" d="M1194.96,761.13s-.05-1.04.02-1.59c0,0,.05-1.76.97-3.48.35-.71.4-1.14.45-1.36,0,0-.08.76-.38,1.45-.3.69-.84,1.52-.94,4.07l.03,1.02-.15-.1Z"/>
      </g>
      <g>
        <g>
          <path class="st23" d="M1204.21,753.01c-.28-.14-1.44,0-1.95,1.17-.51,1.16-1.22,2.37-1.52,2.73-.29.36-1.78,1.86-2.43,2.81-.63.92-1.22,2.33-1.22,2.33l.92.72s.89-1.54,1.08-2.06c.19-.52,1.82-2.46,2.18-2.83.51-.54.93-1.62,1.16-2.34.22-.73.17-1.53.79-1.81.59-.26,1.39-.52.98-.71Z"/>
          <path class="st28" d="M1198.03,762.86l-1.02-.8.02-.05s.6-1.43,1.22-2.34c.46-.67,1.33-1.61,1.91-2.23.24-.26.44-.47.52-.58.28-.35.99-1.55,1.51-2.71.44-.99,1.31-1.25,1.76-1.25.12,0,.21.02.28.05.1.05.15.11.15.19,0,.18-.3.31-.82.52-.1.04-.21.09-.31.13-.42.18-.51.64-.61,1.16-.04.2-.08.41-.14.61-.12.39-.56,1.72-1.17,2.37-.38.41-1.97,2.31-2.16,2.81-.19.51-1.05,2-1.09,2.07l-.04.07ZM1197.18,762.02l.82.64c.17-.3.87-1.54,1.04-1.98.2-.53,1.83-2.48,2.19-2.86.59-.62,1.02-1.93,1.14-2.31.06-.19.1-.4.14-.59.11-.54.21-1.04.69-1.26.1-.04.21-.09.31-.13.28-.11.74-.31.74-.4,0,0-.01-.03-.07-.06-.26-.12-1.36,0-1.86,1.14-.52,1.17-1.24,2.39-1.53,2.74-.09.11-.28.32-.53.58-.58.62-1.44,1.56-1.9,2.22-.55.8-1.08,2.01-1.19,2.27Z"/>
        </g>
        <path class="st28" d="M1197.56,762.32s.34-.97.61-1.46c0,0,.71-1.6,2.21-2.82.59-.51.8-.89.93-1.07,0,0-.36.67-.9,1.18-.54.51-1.34,1.06-2.4,3.37l-.35.95-.1-.16Z"/>
      </g>
      <g>
        <g>
          <path class="st23" d="M1210.69,761.51c-.47-.16-9.75,3.21-10.74,3.6l.41,1.14s9.86-3.72,10.5-4.39c.27-.31-.17-.35-.17-.35Z"/>
          <path class="st28" d="M1200.32,766.34l-.46-1.27.06-.02c.85-.33,9.84-3.61,10.72-3.61.03,0,.05,0,.07,0,.01,0,.24.02.29.17.03.08,0,.18-.09.29-.64.68-10.12,4.26-10.53,4.41l-.06.02ZM1200.03,765.15l.37,1.01c.84-.32,9.82-3.72,10.41-4.35.05-.06.08-.11.07-.14-.02-.05-.13-.08-.2-.09-.02,0-.02,0-.04,0-.8,0-9.23,3.05-10.61,3.57Z"/>
        </g>
        <polygon class="st28" points="1200.15 765.59 1206.51 763.2 1200.23 765.76 1200.15 765.59"/>
      </g>
      <g>
        <g>
          <path class="st23" d="M1212.05,768.55c-.38-.32-10.22-.53-11.28-.53v1.22s10.5.1,11.32-.3c.36-.19-.04-.39-.04-.39Z"/>
          <path class="st28" d="M1203.6,769.32h0c-1.61,0-2.82-.01-2.83-.01h-.07s0-1.36,0-1.36h.07c.57,0,10.9.19,11.33.55.01,0,.21.11.22.27,0,.09-.06.17-.19.24-.54.26-4.93.32-8.52.32ZM1200.84,769.17c.27,0,1.37.01,2.76.01,5.06,0,8.06-.11,8.47-.3.07-.04.11-.08.11-.11,0-.05-.09-.12-.15-.15-.38-.3-9.68-.52-11.19-.53v1.08Z"/>
        </g>
        <polygon class="st28" points="1200.8 768.55 1207.57 768.62 1200.82 768.73 1200.8 768.55"/>
      </g>
      <g>
        <g>
          <path class="st23" d="M1209.22,758.42c-.21-.24-1.33-.56-2.24.3-.91.87-2.02,1.7-2.42,1.91-.4.22-2.34,1.01-3.29,1.62-.92.59-1.99,1.66-1.99,1.66l.58,1.03s1.4-1.07,1.77-1.47c.37-.4,2.6-1.54,3.07-1.75.68-.3,1.47-1.12,1.94-1.7.48-.58.74-1.35,1.41-1.35.64,0,1.48.08,1.17-.27Z"/>
          <path class="st28" d="M1199.84,765.05l-.64-1.14.04-.04s1.08-1.08,2-1.67c.67-.43,1.83-.95,2.6-1.3.32-.15.58-.26.7-.32.39-.21,1.5-1.03,2.4-1.9.51-.48,1.05-.58,1.41-.58.44,0,.79.14.92.29.08.09.1.16.07.23-.06.13-.29.16-.68.16-.09,0-.18,0-.28,0-.1,0-.19,0-.29,0h-.05c-.46,0-.71.38-1,.82-.11.17-.23.34-.36.5-.26.31-1.17,1.36-1.97,1.72-.51.22-2.69,1.35-3.04,1.73-.37.4-1.72,1.43-1.78,1.47l-.06.05ZM1199.37,763.93l.52.92c.27-.21,1.38-1.07,1.7-1.41.38-.41,2.61-1.55,3.09-1.76.78-.34,1.67-1.37,1.92-1.68.13-.16.24-.33.35-.49.3-.45.58-.88,1.11-.88h.05c.09,0,.19,0,.29,0,.09,0,.19,0,.28,0,.47,0,.55-.05.56-.08,0,0,0-.03-.05-.08-.09-.1-.4-.24-.82-.24-.34,0-.85.1-1.32.55-.92.88-2.03,1.71-2.43,1.92-.12.07-.38.18-.71.33-.76.34-1.91.86-2.58,1.29-.81.52-1.75,1.42-1.94,1.62Z"/>
        </g>
        <path class="st28" d="M1199.61,764.36s.68-.76,1.11-1.1c0,0,1.25-1.19,3.09-1.72.73-.24,1.07-.5,1.26-.62,0,0-.58.47-1.27.73-.69.26-1.64.44-3.47,2.16l-.68.74-.03-.18Z"/>
      </g>
      <g>
        <g>
          <path class="st23" d="M1211.7,765.51c-.1-.3-1.01-1.05-2.17-.62-1.16.43-2.5.75-2.95.79-.45.04-2.53-.01-3.64.17-1.07.17-2.46.73-2.46.73l.14,1.18s1.69-.42,2.18-.64c.49-.22,2.97-.37,3.48-.38.74,0,1.77-.44,2.43-.78.66-.34,1.18-.94,1.81-.68.6.26,1.33.67,1.18.23Z"/>
          <path class="st28" d="M1200.56,767.84l-.16-1.31.05-.02s1.41-.56,2.48-.73c.78-.13,2.05-.14,2.88-.15.35,0,.63,0,.77-.02.44-.03,1.77-.35,2.93-.78.24-.09.49-.14.73-.14.82,0,1.43.52,1.53.8.03.1.03.17,0,.22-.03.04-.08.07-.15.07h0c-.17,0-.48-.14-.8-.29-.1-.05-.21-.09-.31-.14-.1-.04-.19-.06-.29-.06-.31,0-.62.2-.94.42-.17.11-.34.22-.52.32-.36.18-1.59.79-2.46.79-.55,0-2.98.16-3.46.37-.49.22-2.12.63-2.19.64l-.07.02ZM1200.54,766.62l.13,1.05c.33-.08,1.67-.43,2.1-.62.51-.23,2.99-.38,3.51-.38.84,0,2.05-.59,2.4-.77.18-.09.35-.2.51-.31.34-.23.66-.44,1.01-.44.12,0,.23.02.34.07.1.04.21.09.31.14.3.14.61.28.75.28.03,0,.04,0,.04,0,0,0,0-.03-.01-.09-.07-.19-.6-.71-1.4-.71-.23,0-.46.04-.69.13-1.17.44-2.52.76-2.97.79-.14.01-.42.01-.77.02-.83,0-2.09.02-2.86.15-.94.15-2.14.61-2.4.71Z"/>
        </g>
        <path class="st28" d="M1200.6,767.11s.92-.43,1.44-.56c0,0,1.6-.59,3.5-.34.77.08,1.17-.03,1.39-.06,0,0-.72.2-1.45.16-.73-.04-1.67-.25-4.01.59l-.91.4.04-.18Z"/>
      </g>
      <g>
        <g>
          <path class="st23" d="M1210.64,776.16c-.23-.45-9.18-4.67-10.15-5.11l-.47,1.12s9.6,4.39,10.51,4.36c.4-.03.11-.37.11-.37Z"/>
          <path class="st28" d="M1210.52,776.6c-.97,0-10.14-4.19-10.53-4.37l-.06-.03.52-1.24.06.03c.53.24,9.93,4.63,10.19,5.14,0,0,.15.19.1.33-.03.08-.12.13-.26.14h-.01ZM1200.11,772.14c.82.37,9.51,4.33,10.41,4.33v.07-.07c.09,0,.14-.03.15-.06.02-.05-.04-.15-.08-.2-.23-.43-8.69-4.44-10.07-5.06l-.42.99Z"/>
        </g>
        <polygon class="st28" points="1200.31 771.55 1206.5 774.38 1200.25 771.73 1200.31 771.55"/>
      </g>
      <g>
        <g>
          <path class="st23" d="M1211.65,772.83c0-.32-.58-1.36-1.81-1.38-1.24-.03-2.59-.22-3.03-.36-.44-.13-2.36-.95-3.46-1.19-1.06-.23-2.55-.23-2.55-.23l-.28,1.16s1.72.23,2.26.21c.53-.02,2.9.75,3.38.94.69.27,1.81.25,2.54.17.73-.07,1.43-.44,1.92.04.47.46,1.01,1.11,1.02.65Z"/>
          <path class="st28" d="M1211.55,773.06h0c-.16,0-.38-.22-.73-.58-.08-.08-.16-.17-.24-.24-.16-.15-.34-.22-.59-.22-.21,0-.44.05-.68.1-.19.04-.39.08-.6.1-.23.02-.58.05-.98.05-.46,0-1.12-.04-1.59-.23-.5-.2-2.78-.94-3.34-.94h-.02c-.54.02-2.2-.2-2.27-.21h-.07s.31-1.3.31-1.3h.05c.16,0,1.55,0,2.57.23.78.17,1.96.63,2.74.93.33.13.59.23.72.27.42.13,1.77.33,3.01.35.57.01,1.09.24,1.47.65.27.3.41.63.41.8,0,.2-.1.23-.16.23ZM1209.99,771.87c.29,0,.5.08.69.26.08.08.16.16.24.25.24.24.53.54.64.54.02,0,.03-.08.03-.09,0-.11-.09-.4-.37-.7-.25-.27-.69-.6-1.38-.61-1.25-.03-2.62-.23-3.05-.36-.13-.04-.4-.14-.73-.27-.78-.3-1.96-.75-2.72-.92-.94-.21-2.22-.23-2.49-.23l-.25,1.03c.34.04,1.71.22,2.17.2h.03c.6,0,2.92.76,3.38.94.36.14.89.22,1.54.22.39,0,.74-.03.97-.05.2-.02.39-.06.58-.1.25-.05.48-.1.71-.1Z"/>
        </g>
        <path class="st28" d="M1200.74,770.22s1-.06,1.54,0c0,0,1.71.04,3.38.98.69.36,1.11.41,1.32.46,0,0-.74-.08-1.41-.39-.67-.31-1.48-.85-3.95-.94l-.99.04.1-.16Z"/>
      </g>
      <g>
        <g>
          <path class="st23" d="M1206.64,782.09c-.06-.51-6.96-7.74-7.73-8.51l-.82.87s7.45,7.63,8.32,7.94c.39.12.23-.31.23-.31Z"/>
          <path class="st28" d="M1206.53,782.49s-.09,0-.14-.03c-.87-.31-8.04-7.65-8.34-7.96l-.05-.05.92-.97.05.05c.41.41,7.68,7.98,7.74,8.55,0,0,.07.21,0,.33-.03.04-.08.08-.17.08ZM1198.19,774.46c.64.65,7.44,7.59,8.25,7.88.04.01.07.02.1.02.04,0,.06-.02.06-.02.03-.04.01-.15-.01-.22-.07-.48-6.59-7.34-7.66-8.43l-.73.77Z"/>
        </g>
        <polygon class="st28" points="1198.58 773.99 1203.39 778.91 1198.47 774.13 1198.58 773.99"/>
      </g>
      <g>
        <g>
          <path class="st23" d="M1200.49,786.53c.14-.49-3.42-9.95-3.83-10.97l-1.09.46s3.91,10.06,4.59,10.69c.31.27.33-.19.33-.19Z"/>
          <path class="st28" d="M1200.33,786.87h0c-.07,0-.13-.03-.21-.1-.68-.64-4.44-10.31-4.6-10.72l-.02-.06,1.21-.52.03.06c.22.55,3.99,10.47,3.83,11.02,0,.11-.06.32-.23.32ZM1195.66,776.06c.33.86,3.92,10.01,4.54,10.61.07.06.11.07.12.07.06,0,.09-.15.1-.21.12-.47-3.23-9.43-3.79-10.88l-.97.41Z"/>
        </g>
        <polygon class="st28" points="1196.2 775.78 1198.72 782.27 1196.04 775.87 1196.2 775.78"/>
      </g>
      <g>
        <g>
          <path class="st23" d="M1203.47,784.86c.22-.22.5-1.39-.37-2.3-.87-.91-1.71-2.03-1.93-2.44-.22-.41-1.05-2.38-1.67-3.34-.6-.93-1.67-2-1.67-2l-.98.63s1.08,1.41,1.48,1.78c.4.37,1.57,2.63,1.79,3.11.31.69,1.13,1.48,1.71,1.95.58.48,1.33.72,1.35,1.41.03.67-.03,1.53.3,1.2Z"/>
          <path class="st28" d="M1203.34,785h0c-.22,0-.22-.42-.23-.99,0-.12,0-.23,0-.35-.02-.47-.39-.72-.83-1-.17-.11-.34-.22-.5-.35-.31-.26-1.36-1.16-1.72-1.98-.23-.52-1.39-2.73-1.77-3.09-.4-.37-1.44-1.73-1.48-1.78l-.05-.06,1.09-.7.04.04s1.08,1.08,1.68,2.01c.44.68.98,1.86,1.34,2.64.15.33.27.59.34.71.21.4,1.05,1.51,1.92,2.42.4.42.62.96.61,1.53,0,.41-.13.75-.25.87-.06.06-.12.09-.17.09ZM1196.95,775.43c.21.27,1.08,1.39,1.42,1.71.41.38,1.59,2.65,1.8,3.13.36.79,1.38,1.68,1.69,1.93.15.13.32.24.49.35.45.3.87.57.89,1.12,0,.11,0,.23,0,.35,0,.26.01.86.1.86,0,0,.03,0,.08-.05.08-.08.2-.36.21-.77,0-.37-.09-.93-.57-1.43-.88-.92-1.72-2.05-1.94-2.45-.07-.12-.19-.39-.34-.72-.36-.78-.9-1.95-1.33-2.62-.53-.82-1.43-1.76-1.63-1.95l-.87.56Z"/>
        </g>
        <path class="st28" d="M1197.41,775.13s.76.68,1.1,1.11c0,0,1.2,1.26,1.76,3.13.25.75.52,1.09.64,1.28,0,0-.47-.59-.75-1.29-.27-.7-.48-1.67-2.2-3.52l-.73-.68.18-.04Z"/>
      </g>
      <g>
        <g>
          <path class="st23" d="M1208.71,779.71c.13-.29-.02-1.48-1.15-2-1.13-.52-2.3-1.25-2.65-1.55s-1.81-1.82-2.73-2.49c-.89-.64-2.26-1.24-2.26-1.24l-.69.96s1.5.91,2,1.1c.5.2,2.39,1.86,2.76,2.22.53.53,1.57.95,2.28,1.18s1.49.17,1.76.81c.26.61.51,1.43.7,1.01Z"/>
          <path class="st28" d="M1208.59,779.9c-.17,0-.3-.31-.52-.85-.04-.11-.09-.22-.13-.32-.18-.43-.62-.52-1.13-.63-.19-.04-.39-.08-.59-.14-.38-.12-1.67-.57-2.3-1.2-.4-.39-2.26-2.02-2.74-2.21-.5-.2-1.95-1.07-2.01-1.11l-.06-.04.77-1.06.05.02s1.39.6,2.28,1.25c.65.47,1.57,1.36,2.17,1.95.26.25.46.45.56.54.34.29,1.51,1.02,2.64,1.54.52.24.91.66,1.11,1.19.14.38.14.74.07.9-.05.1-.11.16-.18.16ZM1199.32,773.37c.29.17,1.49.89,1.93,1.06.52.2,2.41,1.87,2.78,2.24.61.6,1.88,1.04,2.25,1.16.19.06.38.1.58.14.52.11,1.01.21,1.22.71.04.1.09.21.13.32.11.28.3.76.39.76,0,0,.03-.01.05-.08.05-.1.06-.41-.08-.79-.13-.35-.41-.83-1.04-1.12-1.14-.53-2.32-1.26-2.67-1.56-.11-.09-.31-.29-.57-.54-.6-.59-1.52-1.48-2.16-1.94-.78-.57-1.95-1.1-2.2-1.21l-.61.85Z"/>
        </g>
        <path class="st28" d="M1199.64,772.92s.95.35,1.41.62c0,0,1.56.72,2.75,2.26.5.61.87.82,1.05.95,0,0-.65-.37-1.15-.92-.5-.55-1.04-1.38-3.29-2.45l-.92-.36.15-.1Z"/>
      </g>
      <g>
        <g>
          <path class="st23" d="M1193.7,787.84c.31-.4.45-10.55.45-11.65h-1.18s-.03,10.84.36,11.7c.19.37.38-.05.38-.05Z"/>
          <path class="st28" d="M1193.5,788.11h0c-.09,0-.16-.06-.23-.19-.4-.86-.37-11.28-.37-11.72v-.07s1.31,0,1.31,0v.07c0,.59-.12,11.25-.46,11.69,0,.01-.11.22-.26.22ZM1193.04,776.27c0,.92-.01,10.8.35,11.59.04.07.08.11.11.11.05,0,.12-.09.15-.16.29-.39.44-9.99.44-11.55h-1.05Z"/>
        </g>
        <polygon class="st28" points="1193.64 776.22 1193.61 783.21 1193.46 776.24 1193.64 776.22"/>
      </g>
      <g>
        <g>
          <path class="st23" d="M1189.49,787.51c.31,0,1.31-.6,1.33-1.88.02-1.28.2-2.68.33-3.13.13-.45.9-2.44,1.13-3.58.22-1.1.21-2.64.21-2.64l-1.12-.28s-.21,1.78-.19,2.33c.02.55-.71,3-.89,3.5-.26.71-.23,1.87-.15,2.62.08.76.44,1.48-.02,1.98-.44.49-1.07,1.05-.62,1.06Z"/>
          <path class="st28" d="M1189.5,787.58h0c-.11,0-.18-.04-.21-.11-.06-.16.16-.41.55-.82.08-.08.16-.17.23-.25.31-.34.22-.79.11-1.31-.04-.2-.08-.4-.1-.62-.04-.41-.15-1.81.15-2.66.19-.53.91-2.94.88-3.47-.02-.55.18-2.27.19-2.34v-.08s1.26.31,1.26.31v.05s.01,1.56-.21,2.65c-.16.8-.59,2.03-.88,2.84-.12.34-.22.61-.25.74-.12.44-.31,1.83-.32,3.11-.02,1.34-1.07,1.95-1.39,1.95ZM1191.42,776.09c-.04.35-.2,1.77-.18,2.24.02.57-.71,3.03-.89,3.52-.3.82-.19,2.19-.15,2.59.02.2.06.41.1.6.11.54.21,1.04-.14,1.44-.08.08-.16.17-.24.25-.21.22-.56.59-.52.67,0,0,.02.02.09.02v.07s0-.07,0-.07c.25,0,1.24-.56,1.26-1.81.02-1.29.2-2.7.33-3.15.04-.14.14-.41.26-.75.29-.81.72-2.03.88-2.82.19-.97.21-2.29.21-2.57l-1-.25Z"/>
        </g>
        <path class="st28" d="M1191.95,776.22s.06,1.03,0,1.59c0,0-.03,1.76-.92,3.5-.34.71-.39,1.14-.43,1.37,0,0,.07-.76.37-1.45.29-.69.82-1.53.88-4.08l-.05-1.02.15.1Z"/>
      </g>
      <g>
        <g>
          <path class="st23" d="M1196.59,787.7c.29-.11,1.01-1.06.58-2.25-.43-1.2-.76-2.57-.8-3.04-.04-.47-.02-2.61-.2-3.76-.18-1.11-.73-2.53-.73-2.53l-1.14.16s.43,1.74.64,2.24c.22.51.4,3.06.4,3.59,0,.76.45,1.82.78,2.5.34.68.93,1.21.68,1.86-.24.62-.63,1.38-.21,1.22Z"/>
          <path class="st28" d="M1196.5,787.79h0c-.07,0-.11-.04-.13-.07-.09-.14.03-.45.24-.95.04-.11.09-.21.13-.32.17-.44-.08-.82-.36-1.27-.11-.17-.22-.35-.31-.53-.18-.37-.78-1.63-.79-2.53,0-.57-.19-3.08-.4-3.56-.22-.5-.63-2.18-.65-2.25l-.02-.07,1.27-.18.02.05s.56,1.45.74,2.55c.13.81.16,2.11.18,2.97,0,.37.01.65.02.79.04.45.36,1.82.79,3.02.2.55.18,1.14-.05,1.65-.17.37-.41.63-.57.69-.05.02-.08.03-.12.03ZM1194.38,776.34c.08.34.44,1.72.62,2.16.22.53.4,3.09.41,3.62.01.87.6,2.11.78,2.47.09.18.2.35.31.52.29.46.57.89.37,1.39-.04.1-.09.21-.13.32-.12.29-.31.74-.25.82,0,0,0,0,.02,0h0s.04,0,.07-.02c.1-.04.33-.24.49-.61.15-.34.28-.89.04-1.55-.44-1.21-.76-2.59-.8-3.05-.01-.14-.02-.43-.03-.8-.02-.86-.05-2.15-.18-2.95-.16-.97-.61-2.21-.71-2.47l-1.02.14Z"/>
        </g>
        <path class="st28" d="M1194.92,776.26s.42.94.56,1.48c0,0,.59,1.65.37,3.61-.07.79.04,1.21.08,1.44,0,0-.2-.74-.17-1.49.03-.76.22-1.73-.61-4.14l-.4-.93.18.04Z"/>
      </g>
      <g>
        <g>
          <path class="st23" d="M1186.23,786.48c.44-.24,4.49-9.49,4.91-10.5l-1.09-.48s-4.22,9.93-4.18,10.87c.03.42.36.11.36.11Z"/>
          <path class="st28" d="M1186.01,786.66h0c-.07,0-.19-.04-.21-.28-.03-.95,4.02-10.49,4.19-10.9l.03-.06,1.21.53-.03.06c-.23.54-4.45,10.27-4.94,10.54,0,0-.13.11-.25.11ZM1190.08,775.59c-.36.85-4.18,9.9-4.15,10.78,0,.1.03.15.08.15.06,0,.15-.07.17-.09.41-.24,4.26-8.98,4.86-10.41l-.96-.43Z"/>
        </g>
        <polygon class="st28" points="1190.65 775.8 1187.93 782.2 1190.48 775.75 1190.65 775.8"/>
      </g>
      <g>
        <g>
          <path class="st23" d="M1180.56,782.4c.49-.05,7.61-7.06,8.37-7.83l-.83-.87s-7.52,7.56-7.83,8.45c-.13.4.29.25.29.25Z"/>
          <path class="st28" d="M1180.41,782.5h0c-.11,0-.16-.05-.19-.08-.05-.07-.05-.16-.01-.28.32-.89,7.54-8.17,7.85-8.48l.05-.05.93.96-.05.05c-.41.42-7.85,7.79-8.41,7.85,0,0-.08.03-.17.03ZM1188.1,773.81c-.64.65-7.48,7.55-7.77,8.38-.02.07-.03.13,0,.15.01.02.05.03.08.03h0c.07,0,.13-.02.14-.02.47-.06,7.22-6.67,8.3-7.77l-.74-.77Z"/>
        </g>
        <polygon class="st28" points="1188.55 774.22 1183.7 779.1 1188.41 774.1 1188.55 774.22"/>
      </g>
      <g>
        <g>
          <path class="st23" d="M1182.68,784.43c.28.14,1.44,0,1.96-1.15.52-1.16,1.25-2.36,1.54-2.71.3-.36,1.8-1.84,2.46-2.78.64-.91,1.24-2.32,1.24-2.32l-.91-.73s-.9,1.53-1.1,2.05c-.2.51-1.84,2.44-2.2,2.81-.52.54-.95,1.61-1.18,2.33-.23.72-.19,1.53-.81,1.8-.6.25-1.4.5-.99.7Z"/>
          <path class="st28" d="M1182.95,784.55h0c-.12,0-.22-.02-.29-.05-.1-.05-.15-.11-.15-.19,0-.18.3-.3.83-.51.11-.04.21-.09.31-.13.42-.18.51-.63.62-1.15.04-.2.09-.4.15-.61.13-.39.58-1.72,1.2-2.36.39-.4,2-2.29,2.19-2.79.2-.51,1.07-1.99,1.11-2.06l.04-.07,1.01.81-.02.05s-.61,1.42-1.24,2.33c-.47.66-1.35,1.6-1.93,2.21-.25.26-.44.47-.53.57-.29.35-1.01,1.54-1.53,2.7-.44.98-1.31,1.24-1.76,1.24ZM1188.99,774.85c-.17.3-.89,1.53-1.06,1.97-.21.53-1.85,2.46-2.22,2.83-.59.62-1.04,1.92-1.16,2.3-.06.19-.11.4-.15.59-.11.54-.22,1.04-.7,1.25-.1.04-.21.09-.32.13-.28.11-.74.3-.74.39,0,0,.01.03.07.06.05.02.13.04.23.04.41,0,1.23-.24,1.64-1.16.53-1.17,1.26-2.38,1.55-2.73.09-.11.29-.32.53-.58.58-.61,1.46-1.54,1.92-2.2.56-.8,1.1-2,1.21-2.25l-.81-.65Z"/>
        </g>
        <path class="st28" d="M1189.42,775.19s-.35.97-.63,1.45c0,0-.73,1.59-2.23,2.8-.59.5-.81.88-.94,1.06,0,0,.37-.66.91-1.17.54-.51,1.35-1.05,2.43-3.35l.36-.95.1.16Z"/>
      </g>
      <g>
        <g>
          <path class="st23" d="M1177.68,779.15c.21.23,1.34.54,2.23-.34.89-.88,1.99-1.73,2.39-1.95.4-.22,2.32-1.05,3.26-1.68.91-.61,1.96-1.7,1.96-1.7l-.6-1.02s-1.38,1.09-1.74,1.5c-.36.4-2.57,1.59-3.04,1.8-.67.31-1.45,1.14-1.92,1.73-.47.59-.71,1.36-1.39,1.37-.64.02-1.48-.05-1.17.29Z"/>
          <path class="st28" d="M1178.52,779.46h0c-.42,0-.77-.14-.89-.27-.08-.08-.1-.16-.07-.23.07-.16.39-.17.95-.17.11,0,.23,0,.34,0,.46-.01.7-.4.99-.84.11-.17.22-.35.35-.51.25-.32,1.14-1.38,1.94-1.75.5-.23,2.66-1.4,3.01-1.79.36-.4,1.69-1.46,1.75-1.51l.06-.05.66,1.13-.04.04s-1.06,1.1-1.97,1.71c-.67.45-1.82.99-2.58,1.34-.32.15-.57.27-.69.34-.39.22-1.48,1.06-2.37,1.94-.51.5-1.06.61-1.44.61ZM1186.91,772.55c-.27.21-1.36,1.09-1.67,1.44-.38.42-2.59,1.6-3.06,1.82-.77.35-1.64,1.4-1.89,1.71-.13.16-.24.33-.34.5-.29.46-.57.89-1.09.9-.11,0-.22,0-.34,0-.3,0-.79,0-.83.09,0,0,0,.03.05.08.09.09.39.23.79.23h0c.35,0,.87-.1,1.35-.57.9-.89,2.01-1.75,2.4-1.97.12-.07.38-.19.7-.34.76-.36,1.9-.89,2.56-1.33.8-.54,1.72-1.45,1.92-1.65l-.53-.91Z"/>
        </g>
        <path class="st28" d="M1187.2,773.03s-.67.77-1.09,1.12c0,0-1.23,1.22-3.06,1.78-.73.25-1.06.52-1.25.64,0,0,.58-.48,1.26-.75.68-.27,1.63-.47,3.44-2.22l.67-.75.04.18Z"/>
      </g>
      <g>
        <g>
          <path class="st23" d="M1176.47,776.44c.48.13,9.54-3.81,10.52-4.26l-.48-1.11s-9.63,4.32-10.23,5.03c-.25.32.19.34.19.34Z"/>
          <path class="st28" d="M1176.5,776.51h0s-.04,0-.05,0c0,0-.24,0-.3-.15-.04-.08-.01-.18.08-.29.6-.72,9.86-4.88,10.25-5.05l.06-.03.53,1.24-.06.03c-.85.39-9.74,4.27-10.51,4.27ZM1186.47,771.16c-.82.37-9.59,4.32-10.14,4.99-.05.06-.07.12-.06.15.02.05.13.07.2.08h.03c.7,0,9.03-3.6,10.4-4.22l-.43-.99Z"/>
        </g>
        <polygon class="st28" points="1186.75 771.71 1180.54 774.49 1186.66 771.55 1186.75 771.71"/>
      </g>
      <g>
        <g>
          <path class="st23" d="M1174.66,769.02c.39.32,10.22.38,11.29.37l-.02-1.22s-10.5.05-11.32.46c-.36.19.05.39.05.39Z"/>
          <path class="st28" d="M1185.52,769.46c-.1,0-10.46-.03-10.9-.39,0,0-.22-.11-.22-.26,0-.09.06-.17.18-.24.83-.42,10.92-.47,11.35-.47h.07s.02,1.36.02,1.36h-.07c-.09,0-.24,0-.43,0ZM1185.87,768.24c-.9,0-10.46.07-11.22.45-.07.04-.11.08-.11.11,0,.05.09.12.16.15.34.26,7.78.37,10.83.37.15,0,.27,0,.36,0v-1.08Z"/>
        </g>
        <polygon class="st28" points="1185.92 768.86 1179.15 768.89 1185.89 768.68 1185.92 768.86"/>
      </g>
      <g>
        <g>
          <path class="st23" d="M1175.18,764.19c-.02.32.54,1.38,1.77,1.44,1.24.06,2.58.3,3.02.45.43.15,2.33,1.02,3.42,1.3,1.06.27,2.54.31,2.54.31l.31-1.15s-1.72-.28-2.25-.28c-.54,0-2.88-.84-3.35-1.04-.68-.29-1.8-.3-2.54-.25-.74.05-1.45.4-1.92-.1-.45-.47-.98-1.15-1-.68Z"/>
          <path class="st28" d="M1185.98,767.77h-.05s-1.51-.05-2.56-.31c-.77-.2-1.94-.69-2.71-1.01-.33-.14-.59-.25-.71-.29-.42-.14-1.76-.38-3-.45-.57-.03-1.09-.28-1.45-.7-.27-.31-.39-.64-.38-.81.01-.19.11-.22.16-.22.16,0,.38.23.72.61.08.08.16.17.23.25.16.17.36.24.63.24.2,0,.41-.04.64-.08.19-.04.4-.07.6-.09.23-.02.46-.02.69-.02.56,0,1.34.05,1.87.28.5.22,2.8,1.04,3.32,1.04h.02c.55,0,2.18.27,2.25.28h.07s-.34,1.29-.34,1.29ZM1175.27,764.11s-.03.06-.03.09c0,.11.08.4.35.71.24.28.67.62,1.36.66,1.25.06,2.61.31,3.03.46.13.05.39.15.72.29.77.32,1.93.81,2.7,1.01.93.23,2.21.3,2.48.31l.28-1.02c-.33-.05-1.68-.27-2.15-.27l-.02-.07v.07c-.56,0-2.9-.85-3.37-1.05-.52-.22-1.28-.27-1.82-.27-.23,0-.46,0-.68.02-.2.01-.39.05-.59.08-.23.04-.45.08-.66.08-.31,0-.54-.09-.73-.28-.08-.08-.16-.17-.23-.25-.23-.25-.52-.56-.63-.56Z"/>
        </g>
        <path class="st28" d="M1186.01,767.15s-1,.03-1.54-.05c0,0-1.7-.09-3.35-1.08-.68-.38-1.09-.44-1.31-.5,0,0,.73.1,1.39.43.66.33,1.45.9,3.92,1.06h.99s-.1.14-.1.14Z"/>
      </g>
      <g>
        <g>
          <path class="st23" d="M1176.1,761.41c.23.45,9.22,4.58,10.2,5.01l.46-1.12s-9.64-4.3-10.55-4.26c-.4.03-.11.37-.11.37Z"/>
          <path class="st28" d="M1186.33,766.51l-.06-.03c-.53-.23-9.98-4.54-10.23-5.04,0,0-.16-.19-.1-.33.03-.08.12-.13.26-.14h.02c.99,0,10.17,4.09,10.57,4.26l.06.03-.51,1.25ZM1176.22,761.1c-.09,0-.14.03-.15.06-.02.05.04.15.08.2.23.43,8.73,4.35,10.11,4.96l.41-1c-.82-.36-9.53-4.23-10.45-4.23Z"/>
        </g>
        <polygon class="st28" points="1186.47 765.92 1180.26 763.14 1186.52 765.74 1186.47 765.92"/>
      </g>
      <g>
        <g>
          <path class="st23" d="M1175.01,771.98c.1.3,1.01,1.05,2.18.62,1.16-.44,2.5-.76,2.95-.79.45-.04,2.53,0,3.64-.18,1.07-.18,2.46-.74,2.46-.74l-.15-1.18s-1.69.43-2.18.65c-.49.22-2.97.38-3.48.38-.74,0-1.77.44-2.43.79-.66.34-1.18.95-1.81.68-.6-.25-1.33-.66-1.18-.22Z"/>
          <path class="st28" d="M1176.48,772.79c-.82,0-1.43-.52-1.52-.79-.03-.1-.03-.17,0-.22.03-.04.08-.07.15-.07.17,0,.48.14.8.29.1.05.21.09.31.14.1.04.19.06.29.06.31,0,.62-.2.94-.42.17-.11.34-.22.52-.32.36-.19,1.59-.79,2.46-.79.55,0,2.98-.17,3.46-.38.49-.22,2.12-.63,2.19-.65l.07-.02.16,1.31-.05.02s-1.4.56-2.47.74c-.78.13-2.05.15-2.88.16-.35,0-.63,0-.77.02-.44.04-1.77.35-2.93.79-.24.09-.49.14-.74.14ZM1175.11,771.85s-.04,0-.04,0c0,0,0,.03.01.09.07.19.6.7,1.4.7.23,0,.46-.04.69-.13,1.17-.44,2.52-.76,2.97-.8.14-.01.42-.01.78-.02.83-.01,2.09-.03,2.86-.16.94-.16,2.14-.61,2.4-.71l-.13-1.05c-.33.08-1.67.43-2.1.62-.51.23-2.99.39-3.51.39-.84,0-2.05.6-2.4.78-.18.09-.34.2-.51.31-.34.23-.66.44-1.01.44-.12,0-.23-.02-.34-.07-.1-.04-.21-.09-.31-.14-.3-.13-.61-.27-.75-.27Z"/>
        </g>
        <path class="st28" d="M1186.11,770.35s-.91.43-1.44.57c0,0-1.6.6-3.5.35-.77-.08-1.17.03-1.39.07,0,0,.71-.2,1.45-.16.73.04,1.67.24,4.01-.6l.9-.41-.04.18Z"/>
      </g>
      <g>
        <g>
          <path class="st23" d="M1190.47,749.7c-.29.11-1.02,1.05-.59,2.25.42,1.2.74,2.57.77,3.04.04.47,0,2.61.17,3.76.17,1.11.72,2.54.72,2.54l1.15-.15s-.42-1.74-.63-2.25c-.21-.51-.37-3.07-.38-3.59,0-.76-.43-1.83-.77-2.51-.33-.68-.92-1.22-.66-1.86.25-.62.64-1.38.22-1.22Z"/>
          <path class="st28" d="M1191.5,761.36l-.02-.05s-.55-1.45-.72-2.55c-.13-.81-.14-2.11-.16-2.97,0-.36,0-.65-.02-.79-.04-.45-.34-1.82-.77-3.02-.2-.55-.18-1.14.06-1.65.17-.37.42-.62.58-.68.14-.05.22,0,.25.04.09.14-.04.45-.25.95-.05.11-.09.22-.13.32-.17.43.07.82.35,1.27.11.17.22.35.31.54.18.37.77,1.64.77,2.54,0,.57.17,3.08.37,3.57.21.51.61,2.19.63,2.26l.02.07-1.27.17ZM1190.56,749.75s-.04,0-.07.02c-.1.04-.33.24-.5.61-.16.34-.29.88-.05,1.55.43,1.21.74,2.6.78,3.06.01.14.01.43.02.8.01.86.03,2.16.15,2.95.15.97.6,2.21.69,2.47l1.02-.14c-.08-.34-.42-1.73-.61-2.16-.22-.53-.38-3.09-.38-3.62,0-.87-.58-2.12-.76-2.48-.09-.18-.2-.36-.3-.52-.29-.46-.56-.9-.36-1.4.04-.1.09-.21.13-.32.12-.29.31-.73.26-.82,0,0-.01,0-.02,0Z"/>
        </g>
        <path class="st28" d="M1192.06,761.14s-.42-.94-.55-1.48c0,0-.58-1.65-.34-3.61.07-.79-.03-1.21-.07-1.44,0,0,.19.74.16,1.49-.03.76-.23,1.73.58,4.14l.39.93-.18-.04Z"/>
      </g>
      <g>
        <g>
          <path class="st23" d="M1180.31,755c.04.51,6.75,7.94,7.49,8.73l.85-.85s-7.24-7.85-8.1-8.18c-.38-.13-.24.3-.24.3Z"/>
          <path class="st28" d="M1187.8,763.82l-.05-.05c-.4-.42-7.46-8.21-7.51-8.77,0,0-.07-.21.02-.32.04-.05.14-.11.31-.05.86.34,7.83,7.88,8.12,8.2l.05.05-.94.94ZM1180.42,754.74s-.05.02-.06.02c-.03.05-.01.16,0,.21.05.49,6.38,7.53,7.43,8.65l.75-.75c-.62-.67-7.23-7.8-8.03-8.11-.04-.01-.07-.02-.1-.02Z"/>
        </g>
        <polygon class="st28" points="1188.15 763.33 1183.48 758.27 1188.26 763.19 1188.15 763.33"/>
      </g>
      <g>
        <g>
          <path class="st23" d="M1183.57,752.34c-.23.22-.55,1.37.28,2.31.84.94,1.64,2.09,1.84,2.51.21.42.96,2.42,1.55,3.4.57.96,1.6,2.06,1.6,2.06l1-.59s-1.03-1.45-1.41-1.83c-.38-.38-1.48-2.69-1.68-3.17-.29-.7-1.08-1.52-1.64-2.01-.56-.5-1.3-.77-1.3-1.46,0-.67.08-1.52-.25-1.21Z"/>
          <path class="st28" d="M1188.84,762.71l-.04-.04s-1.04-1.12-1.61-2.07c-.42-.7-.92-1.9-1.25-2.69-.14-.33-.25-.6-.31-.72-.2-.41-.99-1.55-1.83-2.49-.39-.43-.58-.98-.56-1.55.02-.41.15-.74.28-.86.11-.1.2-.11.27-.04.11.12.11.44.1.95,0,.12,0,.23,0,.35,0,.47.37.73.79,1.04.16.12.33.24.49.37.3.27,1.32,1.21,1.65,2.04.21.52,1.29,2.78,1.66,3.15.38.38,1.38,1.78,1.42,1.84l.04.06-1.11.66ZM1183.69,752.34s-.04,0-.08.05c-.08.07-.22.35-.23.76-.02.37.06.93.52,1.45.84.95,1.65,2.11,1.85,2.52.06.13.17.39.31.73.33.79.83,1.98,1.24,2.67.5.84,1.37,1.81,1.56,2.01l.89-.53c-.2-.28-1.03-1.43-1.36-1.76-.4-.4-1.49-2.71-1.69-3.2-.33-.8-1.32-1.73-1.62-1.99-.15-.13-.31-.25-.47-.36-.44-.31-.85-.61-.85-1.15,0-.11,0-.23,0-.35,0-.34.02-.77-.06-.85,0,0,0,0,0,0Z"/>
        </g>
        <path class="st28" d="M1189.28,762.29s-.73-.71-1.06-1.15c0,0-1.15-1.3-1.65-3.2-.22-.76-.48-1.11-.59-1.3,0,0,.45.61.7,1.32.25.71.42,1.69,2.07,3.6l.71.71-.18.03Z"/>
      </g>
      <g>
        <g>
          <path class="st23" d="M1178.32,757.47c-.14.29-.02,1.48,1.09,2.04,1.11.56,2.26,1.32,2.61,1.63.34.31,1.76,1.88,2.66,2.57.87.67,2.23,1.31,2.23,1.31l.72-.93s-1.47-.95-1.97-1.16c-.49-.21-2.33-1.93-2.69-2.31-.51-.54-1.54-1-2.24-1.25-.7-.25-1.48-.22-1.73-.86-.24-.62-.47-1.45-.67-1.03Z"/>
          <path class="st28" d="M1186.92,765.1l-.05-.02s-1.37-.65-2.24-1.32c-.64-.49-1.53-1.41-2.12-2.02-.25-.26-.45-.46-.55-.55-.33-.3-1.48-1.06-2.59-1.62-.51-.26-.9-.69-1.07-1.23-.13-.39-.12-.75-.05-.9.02-.04.07-.15.18-.15.17,0,.29.31.49.86.04.11.08.22.12.32.17.44.6.54,1.11.66.19.05.39.09.58.16.38.13,1.65.62,2.27,1.27.38.41,2.19,2.09,2.67,2.3.49.21,1.92,1.13,1.98,1.17l.06.04-.8,1.04ZM1178.43,757.42s-.03.01-.06.07c-.05.1-.08.41.05.8.12.35.39.84,1,1.15,1.12.56,2.28,1.33,2.62,1.64.1.09.3.3.55.56.59.61,1.47,1.53,2.1,2.01.77.59,1.92,1.16,2.17,1.28l.64-.83c-.29-.18-1.47-.94-1.89-1.12-.51-.22-2.35-1.95-2.72-2.33-.59-.62-1.84-1.1-2.21-1.23-.19-.07-.38-.11-.57-.16-.52-.12-1.01-.24-1.2-.74-.04-.11-.08-.22-.12-.33-.1-.29-.28-.77-.37-.77Z"/>
        </g>
        <path class="st28" d="M1187.18,764.54s-.93-.38-1.39-.67c0,0-1.53-.77-2.68-2.34-.48-.62-.84-.85-1.02-.98,0,0,.64.39,1.12.96.49.57,1,1.41,3.21,2.55l.91.39-.15.1Z"/>
      </g>
      <g>
        <path class="st23" d="M1200.8,768.67c0,4.23-3.32,7.66-7.42,7.66s-7.42-3.43-7.42-7.66,3.32-7.66,7.42-7.66,7.42,3.43,7.42,7.66Z"/>
        <path class="st28" d="M1193.38,776.4c-4.13,0-7.48-3.47-7.48-7.73s3.36-7.73,7.48-7.73,7.48,3.47,7.48,7.73-3.36,7.73-7.48,7.73ZM1193.38,761.08c-4.05,0-7.35,3.4-7.35,7.59s3.3,7.59,7.35,7.59,7.35-3.4,7.35-7.59-3.3-7.59-7.35-7.59Z"/>
      </g>
      <path class="st28" d="M1195.84,765.62c-.97,0-1.71.83-1.93,1.67-.22.84.24,1.81.36,1.98.12.17.66.65.84.81.18.16-.15.48-.3.56-.15.08-.58.03-.68-.01-.09-.04-.54.1-.57.11-.03-.01-.48-.15-.57-.11-.1.04-.53.09-.68.01-.15-.08-.48-.4-.3-.56.18-.16.72-.64.84-.81.12-.17.57-1.15.35-1.98-.22-.84-.96-1.67-1.93-1.67s-1.85.78-2.1,1.25c0,0,.91-1.02,2.12-.91,1.22.12,1.78.82,1.87,1.4.08.58-.06,1.67-.48,2.02-.42.35-.96.73-.76.99.2.26.48.38.68.38s.28-.09.42-.03c.14.06.31.14.53.14h0s0,0,0,0,0,0,0,0h0c.22,0,.39-.09.53-.15.14-.06.23.03.42.03s.48-.12.68-.38c.2-.26-.34-.64-.76-.99-.42-.35-.57-1.43-.48-2.02.09-.58.65-1.29,1.87-1.4,1.22-.12,2.12.91,2.12.91-.25-.47-1.14-1.25-2.1-1.25Z"/>
      <path class="st28" d="M1189.25,767.48s.82-.98,1.81-.98,1.57.66,1.67.95c0,0-.75-.81-1.72-.81s-1.76.85-1.76.85Z"/>
      <path class="st28" d="M1189.78,767.36s0,1.26,1.4,1.26,1.42-.98,1.42-.98c0,0-.28.85-1.47.85s-1.32-1-1.35-1.12Z"/>
      <path class="st28" d="M1191.43,767.65c0,.23-.18.42-.41.42s-.41-.19-.41-.42.18-.42.41-.42.41.19.41.42Z"/>
      <path class="st28" d="M1189.65,767.4s1.78-1.09,2.98.08c0,0-1.44-.92-2.98-.08Z"/>
      <path class="st28" d="M1197.87,767.48s-.82-.98-1.8-.98-1.57.66-1.67.95c0,0,.75-.81,1.72-.81s1.75.85,1.75.85Z"/>
      <path class="st28" d="M1197.33,767.36s0,1.26-1.4,1.26-1.42-.98-1.42-.98c0,0,.28.85,1.47.85s1.32-1,1.35-1.12Z"/>
      <path class="st28" d="M1195.69,767.65c0,.23.18.42.41.42s.41-.19.41-.42-.18-.42-.41-.42-.41.19-.41.42Z"/>
      <path class="st28" d="M1197.47,767.4s-1.78-1.09-2.98.08c0,0,1.44-.92,2.98-.08Z"/>
      <path class="st28" d="M1194.15,771.98c-.17-.06-.64.05-.64.05,0,0-.47-.1-.64-.05-.17.06-.95.13-.95.13.11.09.83,0,.95-.04.12-.04.64.15.64.15,0,0,.52-.19.64-.15.12.04.84.13.95.04,0,0-.78-.08-.95-.13Z"/>
      <path class="st28" d="M1194.5,771.38c-.1-.13-.53-.36-.71-.15-.18.21-.19.22-.3.22s-.12-.01-.3-.22c-.18-.21-.61.02-.71.15-.1.13-.79.66-.79.66.24,0,1.02-.68,1.21-.76.19-.08.58.4.59.41h0s0,0,0,0h0s0,0,0,0c0,0,.4-.49.59-.41.19.08.97.76,1.21.76,0,0-.69-.53-.79-.66Z"/>
      <path class="st28" d="M1194.81,772.25c-.1,0-.39.25-.54.38-.12.1-.4.27-.49.33-.05-.01-.1-.02-.16-.02h-.28c-.06,0-.12.01-.18.03-.09-.05-.37-.22-.5-.33-.14-.13-.43-.38-.53-.38s-.42-.05-.47-.1c0,0,.15.17.36.17s.35.2.42.3c.07.1.42.33.68.35-.52.17-.68.91-.68.91.42-.94.96-.79,1.04-.77h0s0,0,0,0c0,0,0,0,0,0h0c.07-.03.62-.17,1.04.77,0,0-.17-.75-.69-.91.26-.04.59-.26.66-.35.08-.1.21-.3.42-.3s.36-.17.36-.17c-.04.06-.37.1-.47.1Z"/>
    </g>
  </g>
  <g id="PARAGUAI">
    <path class="st0" d="M845.34,775.4h213.57v112.52h-213.57v-112.52Z"/>
    <path class="st21" d="M845.34,775.4h213.57v75.02h-213.57v-75.02Z"/>
    <path class="st36" d="M845.34,775.4h213.57v37.51h-213.57v-37.51Z"/>
    <path class="st16" d="M967.01,831.66c0,7.88-6.66,14.27-14.89,14.27s-14.89-6.39-14.89-14.27,6.67-14.26,14.89-14.26,14.89,6.38,14.89,14.26Z"/>
    <path class="st17" d="M959.32,829.45c-.36-.01-.36.37-.36.37,0,0,.01-.11,0,.02,0,.13.06.44.33.46.28.02.38-.29.38-.44,0-.06-.02-.39-.34-.4"/>
    <path d="M942.78,837.37l-.13-.2s-.05-.06-.1-.12c-.03-.03-.06-.04-.1-.05-.04,0-.08,0-.12.02-.05.03-.08.07-.09.12,0,.05.01.11.07.2l.13.21.33-.19ZM944.04,837.3l-1.62.92-.49-.8c-.09-.15-.15-.27-.17-.36-.03-.1-.01-.18.03-.27.04-.09.12-.16.22-.22.08-.05.17-.07.26-.08.09,0,.17.02.25.06.05.03.11.07.17.13-.01-.07-.02-.12-.02-.16,0-.02.02-.06.04-.12.02-.06.04-.1.06-.12l.33-.5.33.54-.33.54c-.04.07-.07.12-.07.16,0,.05,0,.09.03.14l.03.04.66-.37.3.48ZM941.19,836.03l-.49-1.42.38-.12.31.89.29-.09-.29-.82.37-.11.29.82.35-.11-.32-.91.4-.13.5,1.44-1.79.57ZM941.24,833.15l-.02-.13c-.01-.11-.04-.18-.08-.22-.04-.04-.1-.05-.16-.05-.06,0-.1.03-.14.07-.04.04-.05.11-.03.22l.02.16.42-.05ZM940.51,833.8l-.11-.92c-.02-.2,0-.35.09-.47.09-.11.23-.18.41-.2.19-.02.34.02.46.11.12.1.19.26.22.48l.04.3.69-.08.07.56-1.87.21ZM940.44,830.28l.06-.55,1.12.12c.11.01.21.04.3.08.1.04.18.1.24.18.06.08.11.16.13.24.03.11.04.24.02.39-.01.1-.03.19-.05.28-.02.1-.06.19-.11.25-.05.07-.11.13-.18.18-.07.05-.15.08-.23.09-.12.02-.23.03-.32.02l-1.11-.11.06-.55,1.14.12c.1,0,.18,0,.25-.06.06-.05.1-.12.11-.21.01-.1-.01-.17-.06-.23-.05-.06-.13-.09-.23-.11l-1.14-.12ZM942.32,828.76l.1-.27c.03-.09.04-.16.02-.21-.02-.05-.06-.08-.11-.1-.06-.02-.1-.02-.15.01-.05.03-.09.09-.12.18l-.1.27.36.12ZM941.62,828.53l.08-.23c.03-.08.04-.15.02-.19-.02-.04-.05-.07-.11-.09-.04-.02-.1-.02-.14,0-.04.02-.08.07-.1.15l-.09.23.34.11ZM940.73,828.83l.36-.99c.06-.16.15-.27.27-.34.11-.06.24-.07.36-.03.1.04.18.1.24.19.03.06.05.13.05.22.07-.11.16-.18.25-.21.1-.03.2-.03.32,0,.09.03.16.08.22.14.06.07.09.14.11.23,0,.05,0,.13-.02.22-.03.13-.05.21-.06.24l-.33.91-1.78-.59ZM941.69,826.52l.3-.48,1.21.7.47-.74.4.23-.77,1.22-1.61-.93ZM942.93,824.74l.37-.43,1.44,1.16-.37.43-1.44-1.16ZM945.54,823.77l.49-.2c.06.13.1.25.1.36,0,.11-.02.23-.07.33-.06.1-.15.2-.27.31-.16.12-.31.21-.44.24-.14.03-.29.03-.46-.03-.16-.05-.32-.17-.47-.34-.2-.23-.29-.46-.27-.68.02-.23.15-.43.38-.62.18-.15.36-.22.52-.23.16-.02.34.03.51.14l-.32.4s-.09-.05-.12-.06c-.05-.01-.11-.02-.16,0-.05.01-.1.03-.14.07-.1.08-.15.18-.13.3,0,.09.07.2.17.32.14.15.25.24.35.26.1.02.19,0,.28-.08.08-.07.13-.14.13-.22,0-.08-.02-.18-.08-.28M947.44,822.69l-.49-.49.12.67.37-.18ZM947.74,822.99l-.59.29.06.31-.53.26-.22-1.91.57-.28,1.49,1.3-.54.27-.23-.22ZM950.03,821.11l.14.97.14-.02c.12-.01.21-.04.25-.07.05-.04.08-.08.1-.15.02-.07.02-.17,0-.31-.03-.19-.08-.31-.15-.37-.07-.06-.19-.08-.34-.06l-.14.02ZM949.39,820.78l.85-.12c.17-.02.31-.02.42.01.11.03.21.08.29.15.08.07.14.16.19.27.05.11.08.22.1.34.03.19.03.34,0,.45-.03.11-.08.21-.15.29-.07.08-.15.14-.24.18-.11.05-.22.08-.34.1l-.86.12-.26-1.78ZM951.95,820.43l1.55.11-.03.38-.97-.07-.02.29.9.06-.03.37-.9-.06-.03.35,1,.07-.03.41-1.58-.11.14-1.8ZM954.35,820.64l.56.15-.39,1.31.87.24-.13.42-1.43-.39.51-1.73ZM957.52,822.64l.12.07c.09.06.17.08.23.08.06,0,.11-.03.14-.08.03-.05.04-.1.04-.15-.01-.05-.06-.11-.15-.16l-.14-.09-.23.34ZM957.48,821.69l.81.51c.18.11.28.23.31.37.03.14,0,.28-.1.43-.1.15-.23.24-.39.26-.16.02-.33-.02-.53-.15l-.27-.17-.38.56-.49-.31,1.03-1.5ZM959.52,824.44l.33-.6-.62.32.29.28ZM959.32,824.8l-.47-.44-.28.15-.42-.4.87-.38.96-.42.45.43-.82,1.76-.43-.41.15-.28ZM961.07,825.58l.13.2s.04.06.1.11c.03.03.06.04.1.04.04,0,.08,0,.11-.03.05-.03.08-.07.09-.12,0-.05-.02-.12-.08-.2l-.13-.21-.32.2ZM959.81,825.69l1.59-.97.52.78c.1.14.16.26.19.35.02.09.01.19-.02.27-.04.09-.11.17-.21.23-.09.05-.18.09-.27.09-.08,0-.17-.02-.26-.05-.06-.04-.12-.08-.17-.13.02.07.03.12.03.16,0,.04-.02.08-.03.12-.01.04-.03.09-.06.13l-.31.51-.36-.53.32-.55c.04-.07.06-.13.06-.16,0-.05,0-.1-.04-.14l-.03-.04-.65.39-.31-.47ZM962.03,828.12l.56-.41-.71.04.14.37ZM961.69,828.36l-.23-.6-.32.02-.21-.53,2.01.02.22.57-1.53,1.25-.21-.55.26-.18ZM962.59,830.28l.39-.05.11.86-.8.09c-.13-.15-.24-.28-.29-.4-.06-.12-.1-.27-.12-.44-.03-.21-.01-.39.05-.53.06-.14.16-.26.29-.35.14-.09.31-.15.5-.17.2-.03.39,0,.55.06.16.06.29.17.39.31.08.12.13.27.15.48.03.2.03.35,0,.45-.02.1-.07.19-.14.27-.08.08-.17.14-.28.18l-.17-.52c.07-.03.12-.07.15-.13.03-.06.04-.13.03-.21-.02-.12-.07-.21-.17-.28-.1-.06-.24-.08-.43-.06-.2.02-.34.08-.42.16-.07.08-.1.19-.09.32,0,.06.03.12.05.17.03.06.07.11.12.18l.18-.02-.05-.37ZM963.78,832.98l-.07.55-1.11-.12c-.11-.01-.21-.04-.31-.08-.09-.04-.18-.11-.24-.18-.06-.08-.11-.16-.13-.24-.03-.12-.03-.24-.02-.4.01-.09.03-.18.05-.28.03-.1.06-.18.11-.25.05-.07.11-.13.18-.17.08-.05.16-.08.23-.09.12-.02.23-.03.32-.02l1.11.12-.07.55-1.14-.13c-.1-.01-.19,0-.25.06-.06.05-.1.12-.11.21-.01.1,0,.17.06.23.05.06.13.1.23.11l1.14.12ZM962.05,835.03l.71.02-.57-.4-.14.38ZM961.63,835.01l.21-.6-.26-.18.2-.54,1.55,1.23-.21.58-2,.05.2-.55h.33ZM962.67,836.67l-.33.53h-.74s.35.63.35.63l-.33.53-.57-1.14-.68-.38.3-.48.68.39,1.31-.07Z"/>
    <path class="st9" d="M964.58,831.66c0,6.6-5.58,11.94-12.46,11.94s-12.46-5.35-12.46-11.94,5.58-11.94,12.46-11.94,12.46,5.34,12.46,11.94h0Z"/>
    <path class="st9" d="M961.39,831.62c0,4.91-4.15,8.89-9.27,8.89s-9.28-3.98-9.28-8.89,4.15-8.88,9.28-8.88,9.27,3.98,9.27,8.88h0Z"/>
    <path class="st7" d="M952.12,828.42l.78,2.14,2.36.05-1.88,1.37.68,2.16-1.94-1.29-1.94,1.29.68-2.16-1.88-1.37,2.36-.05.78-2.14Z"/>
    <path class="st5" d="M956.4,837.75c-.08.06-.4.1-.48.11-.08.01-.42.01-.56.02-.08,0-.23.03-.3.03-.68-.07,1.11-.06,1.34-.16M954.61,837.25c.04-.08.27-.55.35-.69.08-.13.27-.49.38-.63.06-.08.28-.31.33-.21-.39.32-.69.88-.86,1.26-.02.04-.15.25-.2.31-.05.05-.03.16-.1.16-.08,0-.02.02-.02.02,0,0,.06-.14.11-.22h0ZM957.18,837.61s-.31-.04-.5-.11c-.19-.06-.51-.11-.78-.1-.27,0-.52.08-.74.16-.22.08-.5.08-.5.08,0,0-.16.02-.09-.01.07-.03.32-.22.32-.22l.16-.21s.86-1.04.77-1.31c.12-.2.27-.56.22-.63-.03-.03-.63.18-.77.3-.15.13-.26.39-.31.55-.05.15-.28.28-.28.28-.19.13-.33.55-.39.88-.07.33-.93.52-.93.52,0,0-.24.09-.03.15.04,0,.13.16.21.17.11.01.64-.21.72-.19.18.04.36.09.54.14.2.07.37.1.52.05.14-.05.35-.03.51,0,.15.03.32.02.42-.01.11-.03.38-.18.38-.18,0,0,.3-.12.47-.2.17-.08.07-.11.07-.11"/>
    <path class="st14" d="M954.84,838.61s-1.19-.59-1.25-.61c-.04,0-.54-.27-.77-.34-.17-.05-.39-.06-.48-.06-.2.01-.51.1-.51.1l.29.12s.28.13.41.2c.19.1.2.22.2.22l1.07.45.22.15s.2-.26.81-.22"/>
    <path class="st15" d="M956.04,836.25c.37-.32.56-.77.86-1.02.05.03.05.09-.01.19-.06.1-.14.13-.17.18-.06.08-.25.23-.3.32-.04.08-.1.2-.27.29-.16.09-.11.24-.12.3-.01.07-.26.24-.38.45-.02.22-.03.13-.17.21.25-.37.39-.6.56-.92M955.2,837.26s-.76.45-.53.39c.23-.06.91-.29,1.1-.38.24-.1.38-.31.56-.47.18-.17.74-.68.84-.88.09-.2.18-.49-.2-1.12,0,0-.06.12-.2.24-.14.12-.35.26-.35.26l-.24.22s-.86,1.51-.97,1.75"/>
    <path class="st5" d="M958.19,836.72s-.47-.04-.51-.04c-.04,0-.3-.03-.68-.03s-.51.12-.61.22c-.11.11-.4.37-.4.37h.16c.38-.29.67-.19.79-.2.12,0,.27,0,.65-.12.38-.13.36,0,.32,0-.18.06-.37.1-.57.11-.28.02-.53.07-.64.07s-.94.22-.94.22c0,0,.9.05.99.08.1.04.25.02.37-.04.34-.15.5-.18.64-.21.14-.03.31-.12.31-.12,0,0,.09-.05.17-.2.09-.15-.05-.11-.05-.11M958.63,834.37c.06-.13.2-.45.35-.57.09-.08.25-.11.33-.15.04-.01.29-.02-.03.06-.13.03-.31.11-.39.24-.11.3-.21.56-.42.75-.15.15-.25.36-.25.36l-.16.05c.3-.18.43-.5.58-.74h0ZM960.08,834.2c-.17.05-.23.1-.23.1-.38.11-.54.34-.71.53-.09.1-.21.17-.61.34-.37.15-.66.39-.66.39,0,0-.12.02-.1.08,0,.03.11,0,.11,0,0,0,.76-.1,1.08-.29.2-.12.32-.21.51-.5.09-.13.18-.36.19-.21.01.4-.64.8-.93.92-.15.06-.36.09-.62.13-.26.05-.42.03-.4-.02.03-.08.06-.1.13-.18.13-.14.43-.19.65-.29.26-.11.51-.28.64-.42.13-.14.17-.2.21-.32.1-.32.1-.5.19-.61.32-.38.37-.5.39-.67,0-.04-.17.09-.26.14-.17.1-.24.1-.59.19-.36.09-.35.31-.41.41-.02.04-.16.22-.23.25-.07.03-.24.27-.31.41-.05.1-.13.17-.2.17-.07-.01.14-.75.18-.87.05-.12.06-.36.06-.44s0-.28-.14-.3c-.14-.02-.15-.21-.15-.21-.33.28-.15.77-.11,1.05.04.29-.07.82-.07.82.32.13.07.51-.03.63-.11.12-.31.15-.4.25-.1.11-.77,1.01-.77,1.01l.84-.23s.08.01-.05-.08c-.13-.09.04-.43.15-.51.21-.16.49-.04.49-.04,0,0,.39.06.87-.12.4-.15.57-.4.76-.58.1-.1.29-.43.41-.63.07-.11.2-.33.12-.3"/>
    <path class="st4" d="M957.7,836.37c.06-.02.07-.04.19-.16.12-.12.01-.33-.17-.32-.09,0-.18-.01-.35.21-.17.22.08.3.17.31.04,0,.09-.01.15-.04"/>
    <path class="st13" d="M957.27,834.96c-.11.18-.17.38-.08.45.02.01.1.08.16.08s.25-.08.35-.24c.1-.15.19-.31-.02-.42-.19-.09-.33,0-.41.13"/>
    <path class="st5" d="M957.9,832.78s.02-.03-.06-.1c-.12-.11-.26-.32-.26-.32-.23.12-.31.37-.31.46s.04.32,0,.54c-.01.08-.03.16-.14.44-.12.27.02.52.04.61.02.09.12.36.12.36,0,0,.09-.06.12-.06.04,0,.16,0,.16,0,0,0,.14-.24.14-.38,0-.1-.01-.27-.06-.52-.07-.37-.06-.48-.02-.69.05-.21.26-.35.26-.35"/>
    <path class="st12" d="M958.25,833.16s.13-.03.2-.14c.08-.14.06-.28.06-.28-.2-.38-.48-.07-.48-.07-.24.48.22.5.22.5"/>
    <path class="st3" d="M958.94,832.47c-.3.02-.45.54-.45.54,0,0-.05.13-.21.23-.17.1-.07.25-.07.51s-.19.72-.19.72l-.07.16s0,.12.12-.1c.19-.36.39-.27.47-.66.05-.29.54-.38.54-.38l-.14-.02c-.51-.23.03-.81.12-.91.09-.1.18-.1-.12-.09"/>
    <path class="st11" d="M958.85,833.08c-.14.29.26.3.35.25.04-.02.12-.12.12-.12.16-.22.01-.37-.07-.39-.08-.03-.25-.05-.4.26"/>
    <path class="st5" d="M958.1,831.98c.1.18.39.7.46.67.04-.02,0-.13,0-.13,0,0,0-.14-.06-.31-.05-.17-.04-.39-.13-.53-.09-.14-.31-.3-.39-.52-.08-.22-.02-.64-.01-.69,0-.05.03-.02-.01-.07-.05-.05-.41-.24-.41-.24,0,0,.02.14.01.38,0,.06-.02.13-.03.23,0,.1.05.22.2.51.17.33.26.53.35.69M960.3,829.53s-.11.17-.14.21c-.04.04-.64.53-.67.55-.03.02-.34.12-.62.85-.28.73-.16,1.42-.16,1.42l.14-.02.02-.07s.05-.24.08-.43c.04-.18.25-.44.39-.62.13-.18.24-.45.24-.45.16-.31.24-.58.4-.8,0,.26-1.01,1.83-1.12,2.37l.3-.04c.24-.21.56-.65.77-.94.21-.29.31-.73.34-.93.04-.2.03-1.09.03-1.09"/>
    <path class="st5" d="M958.27,829.69c-.15-.14-.27-.18-.27-.18,0,0,.04.27.04.43s.01.44,0,.58c0,.15-.08.39.03.62.11.23.24.35.32.5.08.14.23.89.23.89,0,0-.05-1.01,0-1.29.04-.28.06-.72,0-.94-.07-.22-.18-.48-.33-.62M958.97,828.71c.05-.09.15-.26.2-.54.02-.12.03-.3.02-.43,0-.09-.04-.24,0-.25.03,0,0,.05.03.17,0,.05-.02.17-.03.33,0,.13-.01.24-.07.41-.05.15,0,.33-.04.37-.03.05-.13.23-.13.23,0,0-.06.15-.05.29,0,.14.01.29.01.29,0,0,.07-.12.22-.14,0,0,.03-.23.03-.31s.1-.55.15-.7c.07-.21.12-.59,0-1.02-.03-.12-.05-.48-.05-.48,0,0-.14.11-.23.53-.03.13.03.47,0,.83,0,.2-.21,1.01-.24,1.06"/>
    <path class="st5" d="M958.97,828.71s0,.02,0,.02c0,0,0,0,0-.02"/>
    <path class="st5" d="M958.4,826.6c.08,0,.08.08.06.14-.01.06-.01.18-.01.21,0,.03.03.2.06.29.03.09.08.12.05.31-.01.12-.14.25-.1.45.02.1.1.21.14.3.03.06.01.21.02.34,0,.12.07.2.07.2,0,0-.09.15-.12-.04-.03-.22-.04-.32-.09-.42-.07-.16-.14-.46-.03-.69.02-.04.03-.13.03-.22s-.06-.27-.08-.37c-.01-.08,0-.26,0-.32M958.03,827.71c.02.13.06.2.21.47.05.09.15.32.16.39.02.07.03.16.03.18,0,.02.02.2.02.2v.07s-.41-.23-.59-.35c-.18-.12-.38-.29-.51-.39-.15-.12-.5-.51-.5-.83l-.16-.14s-.12.71.46,1.16c.17.13.35.28.74.44.39.17.34.33.5.66.16.33.26.52.28.62.01.1-.04,1.51-.04,1.51v.13s.37-1.31.54-1.45c0,0-.34-.05-.31-.56l-.06-.34s-.07-.4.06-.66c0,0,.15-.46.1-.86-.03-.24-.04-.31-.07-.54-.05-.35-.19-.86-.21-.92-.05-.18-.07-.21-.13-.35-.02-.05-.05-.21-.11-.22-.03,0-.08.21-.08.21,0,0-.07.23-.09.3-.05.19-.15.34-.2.77,0,.08-.02.28-.03.31,0,.02-.02.14,0,.19"/>
    <path class="st5" d="M958.34,829.49s-.06-.13-.12-.19c-.12-.14-.28-.25-.75-.47-.46-.22-.58-.58-.82-.73-.11-.07-.32-.11-.32-.11,0,0,.21.27.25.36.06.12.08.2.33.43.25.23.56.31.76.36.28.08.66.34.66.34M956.88,827.4s.13.43.38.73c.38.46,1.12.79,1.12.79-.07-.29-.19-.62-.28-.77-.34-.52-1.22-.77-1.22-.77,0,0-.02-.02,0,.02M957.94,827.61c.2-.42-.39-.81-.56-1.1.06-.05.14.08.2.16.1.12.37.48.37.48l.08-.38-.7-.61c0,.09-.23.16-.23.16-.11.57.83,1.3.83,1.3"/>
    <path class="st5" d="M956.71,826.65c-.17.07-.23.07-.23.07l.09.24.06.07s.22.31.35.35c.05.02.26.05.46.14.25.1.67.45.67.45,0,0-.69-.75-.96-1.31l-.09-.32-.25.02s.07.23-.1.3"/>
    <path class="st5" d="M954.12,826.17c.12.1.24.19.38.27.15.09.59.34.92.4.08.01.49.06.49.06.02-.17.21-.19.21-.19l-.58-.06c-.47-.03-.83-.22-1.11-.52.37.22.91.56,1.35.54,1.79-.17-.54-.21-.74-.34-.21-.13-.4-.34-.4-.34l-.53-.02s-.26-.02.01.2"/>
    <path class="st5" d="M956.23,827.15c.12,0,.2-.03.22-.15.02-.14-.03-.23-.2-.27-.1-.02-.26-.03-.33.13-.07.17.2.27.2.27,0,0,.05.02.11.01M956.43,826.17c-.15,0-.2.12-.17.35.04.23.41.13.41.13l.07-.03s.05-.04.02-.22c-.03-.19-.18-.22-.33-.22M957.04,826.33h0s0,0,0,0"/>
    <path class="st5" d="M957.04,826.33s.01,0,.05-.02c.08-.03.16-.21.16-.21.04-.24-.14-.3-.14-.3-.3-.06-.31.2-.31.2-.08.33.2.33.24.33M955.69,825.19c.02.11.18.27.21.3.03.02.24.23.31.33.07.09.31.52.31.52,0,0,.04,0,.06-.04.04-.07-.16-.58-.18-.62-.07-.16-.19-.27-.31-.39-.03-.02-.13-.14-.23-.27.21.26.76,1,.92,1.33,0,0-.02-.35-.04-.54-.07-.55-.22-.72-.26-.8-.08-.15-.3-.29-.45-.34-.15-.05-.33-.13-.53-.19-.2-.06-.05.11.03.26.09.18.17.34.18.45"/>
    <path class="st5" d="M954.94,826.09c.2.16.29.27.7.33.41.06.45.04.45.04,0,0,.21-.1.11-.19-.61-.26-1.18-.56-1.48-.9,0,0,.05-.05.26.16.12.12.2.18.28.23.22.15.32.19.54.31.12.06.41.13.41.13,0,0,.04-.09.08-.1.04,0-.02-.14-.28-.34-.14-.11-.27-.24-.37-.39,0,0-.3-.06-.63-.12-.24-.04-.7-.38-.7-.29,0,.1.07.39.19.58.12.19.24.38.44.55"/>
    <path class="st14" d="M951.52,837.95c-.18.05-1.53.53-1.53.53l-.38.14c.52-.11.92.14.92.14l1.5-.66s0-.02-.04-.05c-.04-.03-.29-.16-.47-.11"/>
    <path class="st8" d="M949.56,838.68s-.02.04,0,.05c.07.04.05.06.39.09.34.04.57-.03.62-.09.07-.07-.85-.21-1.03-.06"/>
    <path class="st10" d="M947.4,834.04l-.06-.4s-.08-1.09-.21-1.31c-.02-.05-.01-.16-.1-.16-.16-.01-.16.34-.18.66-.26,1.62,1.09,2.86,1.09,2.86l-.55-1.65Z"/>
    <path class="st6" d="M954.08,838.84s-.14-.03-.05-.14c.09-.1.34-.15.39-.15.05,0,.19,0,.3.04.11.03.26.12.21.18-.05.06-.19.14-.39.14-.17,0-.26,0-.33-.02-.07-.03-.13-.05-.13-.05"/>
    <path class="st14" d="M952.62,838.07s-.46-.2-.9-.41c-.58-.27-1.27-.65-1.76-1.34-.61-.85-1.13-1.31-1.26-1.4-.13-.09-.15-.13-.2-.06-.04.06-.01.11.02.16.12.19.43.56.54.75.19.35.58.73.58.96,0,.03-.11-.02-.11-.02,0,0-.92-.3-1.29-1.36-.27-.77-.16-1-.22-1.38-.11-.69-.13-.74-.48-1.51,0-.02-.22-.34-.24-.27-.04.09.03.44.03.44l.04.4s-.03.88-.03.93-.23.6.75,1.52c0,0,.01.16-.12.02-.09-.1-.8-.62-1.01-1.46-.22-.85-.25-1.7-.09-2.05.15-.32.45-1.1.32-1.78-.01-.07-.04-.28-.08-.23-.02.03-.11.37-.16.49-.07.16-.19.32-.22.44-.07.19-.41.49-.34,1.03.07.63.12.72.2.95.03.08.09.29.05.31-.04.02-.18-.25-.18-.25,0,0-.62-1.17-.24-2.12.39-.94,1.36-1.84,1.36-1.84,0,0,.79-.63.95-.77.06-.06.05-.1.03-.09-.2.05-1.71.35-2.25,2.08,0,0-.03.07-.07.05-.05-.02,0-.1,0-.1,0,0,.33-1.23,1.27-1.79,1.02-.61.9-.52,1.24-.71.21-.13.41-.3.64-.67.02-.04.12-.26.11-.3-.01-.04-.06.01-.08.08,0,0-.29.43-.72.57-.43.14-.79-.06-1.23.4-.44.47-.79,1.11-.79,1.11,0,0-.11.17-.14.16-.05-.01.02-.18.02-.18,0,0,.58-1.19,1.05-1.43.47-.24.89-.48,1.16-.67.32-.24.88-.84,1.08-1.05.04-.04.34-.34.41-.43.04-.05.14-.13.12-.14-.04-.03-.33.1-.33.1,0,0-1.55.41-2.51,1.8-.04.06-.15.2-.21.25-.1.1-.15.27-.15.27-.06-.05.54-.78.54-.78l.11-.47s.18-.71.56-1.21c.04-.05.26-.26.3-.31.07-.08-.14.07-.1.04,0,0-1.44.99-1.44,2.24,0,.22-.15.43-.35.71-.24.32-.31.52-.42,1.01-.04.2-.09.41-.13.61,0,0,.01.18-.05.17-.06-.01-.04-.16-.04-.16,0,0,.15-.93.25-1.22.1-.28.17-.47.17-.47,0,0-.06-.7.1-1.08.14-.33.49-.78.54-.89.02-.05.18-.36.23-.72,0-.05-.03,0-.1.13-.16.34-.29.43-.55.75,0,0-.67.46-.91,1.85,0,0,0,.51-.09,1.32-.06.59,0,1.15.06,1.48.04.2.13.21.08.23-.03.02.02,0-.06-.15-.09-.18-.16-.47-.16-.86,0-.72.07-1.3.07-1.3,0,0,.05-1.16-.45-1.69-.02-.03.09.24.14.5.06.33-.05.78-.08.95-.03.18-.37.95-.25,1.67,0,0,.28,1.22.65,1.82,0,0,.23.26.03.02-.2-.24-.61-1.19-.65-1.27-.03-.08-.33-.67-.6-.91-.14-.13-.54-.35-.54-.35,0,0-.21-.16-.05.05.13.16.3.46.38.58.17.26.32.54.45.82.13.28.44,1.09.44,1.09l.2.52s.33.17.51.37c.15.15.45.51.7,1.14.11.28.34.53.34.53,0,0-.05.09-.25-.25-.2-.34-.39-.97-.87-1.47-.36-.38-1.34-.76-1.34-.76,0,0,.63,1.05.78,1.24.26.3.65.72.74.83.1.11.69.81.78.93.14.17.23.25.3.32.16.16.62.45.65.5,0,.05.02,0-.02-.02-.21-.12-.45-.3-.7-.46-.25-.16-1.23-.56-1.88-1.42-.16-.26-.23-.36-.28-.33-.08.04.44,1.69,1.51,2.22,0,0,1.18.5,1.45.66.14.08.43.21.57.31.08.06-.07.06-.08.06-.63-.05-1.53-.13-2.09-.43,0,0-.24-.16-.04.06.16.17.45.6,1.02.84.57.24,1.4.38,1.7.39.3.02,1.36.02,1.56.08.2.06.54.27.73.33.18.05.71.25.71.25,0,0,.16.08.25.11.1.04.49.03.52-.04.03-.06-.11-.16-.11-.16"/>
    <path class="st5" d="M959.49,829.46c.12.04.17.38.17.38,0,0-.01-.2-.01-.29s-.05-.46-.05-.46l-.11.07c-.13.1-.2.27-.2.27,0,0,.07-.01.19.03"/>
  </g>
</svg>